{
	"asset":{
		"generator":"Khronos glTF Blender I/O v5.1.19",
		"version":"2.0"
	},
	"extensionsUsed":[
		"KHR_materials_clearcoat",
		"KHR_materials_transmission",
		"KHR_materials_specular",
		"KHR_materials_ior",
		"KHR_materials_sheen"
	],
	"scene":0,
	"scenes":[
		{
			"name":"Scene",
			"nodes":[
				0,
				1,
				13,
				14,
				15,
				16,
				17,
				18,
				19,
				20,
				21,
				22,
				23,
				38,
				39,
				43,
				47,
				51,
				55,
				59,
				60,
				61,
				71,
				72,
				73
			]
		}
	],
	"nodes":[
		{
			"mesh":0,
			"name":"imac",
			"rotation":[
				0.7071068286895752,
				0,
				0,
				0.7071068286895752
			]
		},
		{
			"mesh":1,
			"name":"water",
			"rotation":[
				0.7071068286895752,
				0,
				0,
				0.7071068286895752
			]
		},
		{
			"name":"joint6",
			"rotation":[
				-1.7807482817152904e-15,
				-5.307042807212632e-23,
				-0.07018356770277023,
				0.9975340962409973
			],
			"scale":[
				1,
				0.9999999403953552,
				1
			],
			"translation":[
				3.3930702209472656,
				3.590487267501885e-06,
				-2.808476438076468e-07
			]
		},
		{
			"children":[
				2
			],
			"name":"joint5",
			"rotation":[
				0,
				0,
				0.06238890066742897,
				0.9980518817901611
			],
			"translation":[
				2.172152519226074,
				-1.771448296494782e-06,
				-7.82979441282805e-08
			]
		},
		{
			"children":[
				3
			],
			"name":"joint4",
			"rotation":[
				-1.7764110495088747e-15,
				2.775642595729862e-17,
				0.007811793126165867,
				0.999969482421875
			],
			"scale":[
				0.9999999403953552,
				1,
				1
			],
			"translation":[
				2.7827320098876953,
				1.7637166820350103e-06,
				1.575583610247122e-07
			]
		},
		{
			"children":[
				4
			],
			"name":"joint3",
			"rotation":[
				0,
				-5.55262787103002e-17,
				-0.02334543690085411,
				0.9997274279594421
			],
			"scale":[
				1.0000001192092896,
				1.0000001192092896,
				1.0000001192092896
			],
			"translation":[
				3.6350903511047363,
				2.639048489072593e-06,
				-8.08597633294994e-08
			]
		},
		{
			"children":[
				5
			],
			"name":"joint2",
			"rotation":[
				-1.7774723817917844e-15,
				2.4715686864496537e-17,
				0.019109172746539116,
				0.999817430973053
			],
			"scale":[
				0.9999999403953552,
				0.9999999403953552,
				1
			],
			"translation":[
				4.004562854766846,
				3.8924201817280846e-07,
				-9.367045095132198e-08
			]
		},
		{
			"name":"joint8",
			"rotation":[
				0.0010160813108086586,
				0.23980094492435455,
				0.004113529808819294,
				0.9708128571510315
			],
			"scale":[
				1.0000001192092896,
				1.0000001192092896,
				1.0000001192092896
			],
			"translation":[
				3.1374292373657227,
				0.10412212461233139,
				-0.19001267850399017
			]
		},
		{
			"children":[
				7
			],
			"name":"joint7",
			"rotation":[
				-0.0010160888778045774,
				-0.23980094492435455,
				-0.00411354610696435,
				0.9708128571510315
			],
			"scale":[
				0.9999998807907104,
				0.9999998807907104,
				0.9999999403953552
			],
			"translation":[
				1.7718348503112793,
				-1.0883889198303223,
				1.1192923784255981
			]
		},
		{
			"name":"joint10",
			"rotation":[
				0.0010160959791392088,
				0.23980093002319336,
				0.004113542381674051,
				0.9708128571510315
			],
			"scale":[
				1,
				0.9999998807907104,
				1
			],
			"translation":[
				-3.041411876678467,
				-0.10411904007196426,
				0.35277462005615234
			]
		},
		{
			"children":[
				9
			],
			"name":"joint9",
			"rotation":[
				0.23980097472667694,
				-0.0010160908568650484,
				0.9708128571510315,
				0.004113554023206234
			],
			"scale":[
				0.9999998807907104,
				1,
				0.9999999403953552
			],
			"translation":[
				1.7718348503112793,
				-1.088381052017212,
				-1.1192892789840698
			]
		},
		{
			"children":[
				6,
				8,
				10
			],
			"name":"joint1",
			"rotation":[
				-0.7071003913879395,
				0.0029961401596665382,
				0.002996140392497182,
				0.7071004509925842
			],
			"scale":[
				1,
				0.9999998807907104,
				1
			],
			"translation":[
				-6.015541076660156,
				-3.379441022872925,
				-6.0026936531066895
			]
		},
		{
			"mesh":2,
			"name":"pPlane1",
			"skin":0
		},
		{
			"children":[
				12,
				11
			],
			"name":"CLOWNFISH",
			"rotation":[
				0.7071068286895752,
				0,
				0,
				0.7071068286895752
			],
			"scale":[
				0.009999999776482582,
				0.009999999776482582,
				0.009999999776482582
			],
			"translation":[
				0.24522636830806732,
				0.33776021003723145,
				0
			]
		},
		{
			"mesh":3,
			"name":"shell",
			"rotation":[
				0.7071068286895752,
				0,
				0,
				0.7071068286895752
			]
		},
		{
			"mesh":4,
			"name":"vetro",
			"rotation":[
				0.7071068286895752,
				0,
				0,
				0.7071068286895752
			]
		},
		{
			"mesh":5,
			"name":"base-tastiera",
			"rotation":[
				0.7034707069396973,
				-0.0716162845492363,
				0.0716162770986557,
				0.703470766544342
			],
			"scale":[
				0.6797962188720703,
				0.6797962188720703,
				0.6797962784767151
			],
			"translation":[
				1.1166106462478638,
				-0.13540759682655334,
				0.33730220794677734
			]
		},
		{
			"mesh":6,
			"name":"cd-blu",
			"rotation":[
				-0.7071068286895752,
				0,
				0,
				0.7071068286895752
			],
			"scale":[
				0.15748316049575806,
				0.15748316049575806,
				0.15748316049575806
			],
			"translation":[
				1.1179951429367065,
				-0.09886164218187332,
				0.6075009703636169
			]
		},
		{
			"mesh":7,
			"name":"cd-clown",
			"rotation":[
				-0.6575047373771667,
				-0.2601683735847473,
				-0.2601684033870697,
				0.6575047373771667
			],
			"scale":[
				0.15748316049575806,
				0.15748316049575806,
				0.15748316049575806
			],
			"translation":[
				1.328758716583252,
				-0.09886164218187332,
				0.9052057266235352
			]
		},
		{
			"mesh":8,
			"name":"walkman",
			"rotation":[
				0,
				-0.18877890706062317,
				0,
				0.9820197224617004
			],
			"scale":[
				0.10036240518093109,
				0.10036240518093109,
				0.10036240518093109
			],
			"translation":[
				-1.0202363729476929,
				-0.12085967510938644,
				0.712624192237854
			]
		},
		{
			"mesh":9,
			"name":"tasti",
			"rotation":[
				0.7034707069396973,
				-0.0716162845492363,
				0.0716162770986557,
				0.703470766544342
			],
			"scale":[
				0.6797962188720703,
				0.6797962188720703,
				0.6797962784767151
			],
			"translation":[
				1.1166106462478638,
				-0.12832728028297424,
				0.33730220794677734
			]
		},
		{
			"mesh":10,
			"name":"mouse",
			"rotation":[
				0.7034707069396973,
				-0.0716162845492363,
				0.0716162770986557,
				0.703470766544342
			],
			"scale":[
				0.6797962188720703,
				0.6797962188720703,
				0.6797962784767151
			],
			"translation":[
				1.1166106462478638,
				-0.13540758192539215,
				0.33730220794677734
			]
		},
		{
			"mesh":11,
			"name":"scrivania",
			"scale":[
				1.989162564277649,
				1,
				1.4562469720840454
			],
			"translation":[
				0.23686356842517853,
				-0.15100257098674774,
				0.11542310565710068
			]
		},
		{
			"mesh":12,
			"name":"cdstack",
			"rotation":[
				0.7071068286895752,
				0,
				0,
				0.7071068286895752
			],
			"scale":[
				0.001425818307325244,
				0.001425818307325244,
				0.001425818307325244
			],
			"translation":[
				1.453534722328186,
				-0.10867324471473694,
				0.44190460443496704
			]
		},
		{
			"name":"Blue_Tang_joint6",
			"rotation":[
				-9.546054968723183e-08,
				8.431940479169953e-09,
				-1.8088011088934763e-09,
				1
			],
			"scale":[
				1.0000001192092896,
				1.0000001192092896,
				1.0000001192092896
			],
			"translation":[
				1.5234105603667558e-06,
				1.1580060720443726,
				-5.016633033752441
			]
		},
		{
			"children":[
				24
			],
			"name":"Blue_Tang_joint5",
			"rotation":[
				-0.1236666589975357,
				-1.5016430765513178e-08,
				-1.173158653555717e-10,
				0.9923238158226013
			],
			"scale":[
				1,
				1.0000001192092896,
				0.9999999403953552
			],
			"translation":[
				0,
				0.47723397612571716,
				-7.7998223304748535
			]
		},
		{
			"children":[
				25
			],
			"name":"Blue_Tang_joint4",
			"rotation":[
				0.011229290626943111,
				7.447910288505e-09,
				4.703608058598263e-10,
				0.9999369382858276
			],
			"translation":[
				-5.718628131035075e-07,
				0.9281685948371887,
				-8.55015754699707
			]
		},
		{
			"children":[
				26
			],
			"name":"Blue_Tang_joint3",
			"rotation":[
				0.001524257706478238,
				7.459061812653545e-09,
				-4.539457351682152e-12,
				0.9999988079071045
			],
			"scale":[
				1.0000001192092896,
				1,
				1.0000001192092896
			],
			"translation":[
				-9.784494068298955e-07,
				0.6440363526344299,
				-8.27087116241455
			]
		},
		{
			"children":[
				27
			],
			"name":"Blue_Tang_joint2",
			"rotation":[
				-0.023471463471651077,
				0,
				2.3289478678911735e-10,
				0.9997245073318481
			],
			"scale":[
				0.9999999403953552,
				1.0000001192092896,
				1
			],
			"translation":[
				-1.430511474609375e-06,
				0.4067648649215698,
				-5.525214672088623
			]
		},
		{
			"name":"Blue_Tang_joint8",
			"rotation":[
				-6.565824151039124e-08,
				-6.511982619805678e-10,
				5.704351124791174e-08,
				1
			],
			"scale":[
				0.9999999403953552,
				1,
				0.9999999403953552
			],
			"translation":[
				0.726754903793335,
				2.3743534088134766,
				-2.6893067359924316
			]
		},
		{
			"children":[
				29
			],
			"name":"Blue_Tang_joint7",
			"rotation":[
				-0.01949719898402691,
				-0.17364218831062317,
				0.0014436760684475303,
				0.9846147298812866
			],
			"scale":[
				1,
				0.9999999403953552,
				0.9999999403953552
			],
			"translation":[
				2.6611101627349854,
				-2.0954813957214355,
				-4.438393592834473
			]
		},
		{
			"name":"Blue_Tang_joint10",
			"rotation":[
				-6.633672455791384e-08,
				5.165929906070232e-10,
				-3.239256329834461e-08,
				1
			],
			"translation":[
				-0.726749837398529,
				2.374335527420044,
				-2.6893062591552734
			]
		},
		{
			"children":[
				31
			],
			"name":"Blue_Tang_joint9",
			"rotation":[
				-0.019497187808156013,
				0.17364218831062317,
				-0.0014436694327741861,
				0.9846147298812866
			],
			"scale":[
				1,
				0.9999998807907104,
				0.9999999403953552
			],
			"translation":[
				-2.6611099243164062,
				-2.0954737663269043,
				-4.438395977020264
			]
		},
		{
			"name":"Blue_Tang_IK_CV",
			"rotation":[
				0.7041950225830078,
				-1.5165693700858185e-10,
				7.033018889207214e-19,
				0.710006594657898
			],
			"scale":[
				0.9999998807907104,
				0.9999998807907104,
				1
			],
			"translation":[
				-1.7881393432617188e-06,
				-9.483202934265137,
				-13.295618057250977
			]
		},
		{
			"children":[
				28,
				30,
				32,
				33
			],
			"name":"Blue_Tang_joint1",
			"rotation":[
				-0.7041950225830078,
				6.307161379372802e-16,
				-1.6396307922494913e-10,
				0.710006594657898
			],
			"scale":[
				0.9999999403953552,
				1,
				0.9999998807907104
			],
			"translation":[
				2.622604142743512e-06,
				13.373106002807617,
				-9.373600006103516
			]
		},
		{
			"mesh":13,
			"name":"Blue_Tang",
			"skin":1
		},
		{
			"name":"Blue_Tang_cv.001",
			"rotation":[
				0,
				0,
				0.1736481487751007,
				0.9848077893257141
			],
			"translation":[
				2.6611108779907227,
				8.917360305786133,
				-7.314518451690674
			]
		},
		{
			"name":"Blue_Tang_cv1",
			"rotation":[
				0,
				0,
				-0.1736481487751007,
				0.9848077893257141
			],
			"translation":[
				-2.6611075401306152,
				8.917364120483398,
				-7.314518451690674
			]
		},
		{
			"children":[
				35,
				36,
				37,
				34
			],
			"name":"Blue_Tang_cv",
			"rotation":[
				0.40294674038887024,
				-0.5810628533363342,
				0.5810627341270447,
				0.4029467701911926
			],
			"scale":[
				0.003867486957460642,
				0.003867486957460642,
				0.003867486957460642
			],
			"translation":[
				0.2591328024864197,
				0.3451593518257141,
				0.0036076344549655914
			]
		},
		{
			"name":"Blue_Tang_IK",
			"rotation":[
				0.34704217314720154,
				-0.6517830491065979,
				0.500446617603302,
				0.45198872685432434
			],
			"scale":[
				0.003867486957460642,
				0.003867486957460642,
				0.003867486957460642
			],
			"translation":[
				0.33869922161102295,
				0.38758185505867004,
				0.03338811174035072
			]
		},
		{
			"name":"Untitled.005",
			"translation":[
				0,
				7.851424694061279,
				-15
			]
		},
		{
			"children":[
				40
			],
			"name":"cluster5Handle",
			"translation":[
				-9.223478317260742,
				0,
				5.174235820770264
			]
		},
		{
			"name":"Untitled",
			"translation":[
				9.223479270935059,
				7.8514251708984375,
				-15.000001907348633
			]
		},
		{
			"children":[
				41,
				42
			],
			"name":"Blue_Tang_locator1",
			"rotation":[
				0.7071068286895752,
				0,
				0,
				0.7071068286895752
			],
			"scale":[
				0.009999999776482582,
				0.009999999776482582,
				0.009999999776482582
			],
			"translation":[
				0.09223479777574539,
				0.15000000596046448,
				0.07851424813270569
			]
		},
		{
			"name":"Untitled.006",
			"translation":[
				0,
				-0.43817460536956787,
				-14.999998092651367
			]
		},
		{
			"children":[
				44
			],
			"name":"cluster4Handle",
			"translation":[
				-9.223478317260742,
				0,
				4.94854736328125
			]
		},
		{
			"name":"Untitled.001",
			"translation":[
				9.223479270935059,
				-0.4381745755672455,
				-15.000001907348633
			]
		},
		{
			"children":[
				45,
				46
			],
			"name":"Blue_Tang_locator2",
			"rotation":[
				0.7071068286895752,
				0,
				0,
				0.7071068286895752
			],
			"scale":[
				0.009999999776482582,
				0.009999999776482582,
				0.009999999776482582
			],
			"translation":[
				0.09223479777574539,
				0.15000000596046448,
				-0.004381746053695679
			]
		},
		{
			"name":"Untitled.007",
			"translation":[
				0,
				-8.98476505279541,
				-14.99999713897705
			]
		},
		{
			"children":[
				48
			],
			"name":"cluster3Handle",
			"translation":[
				-9.223478317260742,
				0,
				4.195031642913818
			]
		},
		{
			"name":"Untitled.002",
			"translation":[
				9.223479270935059,
				-8.984766006469727,
				-15.000001907348633
			]
		},
		{
			"children":[
				49,
				50
			],
			"name":"Blue_Tang_locator3",
			"rotation":[
				0.7071068286895752,
				0,
				0,
				0.7071068286895752
			],
			"scale":[
				0.009999999776482582,
				0.009999999776482582,
				0.009999999776482582
			],
			"translation":[
				0.09223479777574539,
				0.15000000596046448,
				-0.0898476392030716
			]
		},
		{
			"name":"Untitled.008",
			"translation":[
				0,
				-16.774635314941406,
				-14.999999046325684
			]
		},
		{
			"children":[
				52
			],
			"name":"cluster2Handle",
			"translation":[
				-9.223478317260742,
				0,
				3.6760385036468506
			]
		},
		{
			"name":"Untitled.003",
			"translation":[
				9.223479270935059,
				-16.774635314941406,
				-15
			]
		},
		{
			"children":[
				53,
				54
			],
			"name":"Blue_Tang_locator4",
			"rotation":[
				0.7071068286895752,
				0,
				0,
				0.7071068286895752
			],
			"scale":[
				0.009999999776482582,
				0.009999999776482582,
				0.009999999776482582
			],
			"translation":[
				0.09223479777574539,
				0.15000000596046448,
				-0.16774635016918182
			]
		},
		{
			"name":"Untitled.009",
			"translation":[
				0,
				-21.78333282470703,
				-15
			]
		},
		{
			"children":[
				56
			],
			"name":"cluster1Handle",
			"translation":[
				-9.223478317260742,
				0,
				2.010786294937134
			]
		},
		{
			"name":"Untitled.004",
			"translation":[
				9.223479270935059,
				-21.78333282470703,
				-12.992351531982422
			]
		},
		{
			"children":[
				57,
				58
			],
			"name":"Blue_Tang_locator5",
			"rotation":[
				0.7071068286895752,
				0,
				0,
				0.7071068286895752
			],
			"scale":[
				0.009999999776482582,
				0.009999999776482582,
				0.009999999776482582
			],
			"translation":[
				0.09223479777574539,
				0.1299234926700592,
				-0.21783332526683807
			]
		},
		{
			"mesh":14,
			"name":"Flowerpot",
			"translation":[
				-0.849628746509552,
				-0.11474837362766266,
				0
			]
		},
		{
			"mesh":15,
			"name":"Plant",
			"translation":[
				-0.849628746509552,
				-0.11474837362766266,
				0
			]
		},
		{
			"mesh":16,
			"name":"Cone",
			"scale":[
				0.05079999938607216,
				0.12699998915195465,
				0.05079999938607216
			],
			"translation":[
				0.0026073455810546875,
				0.2832771837711334,
				0
			]
		},
		{
			"mesh":17,
			"name":"Cone.001",
			"scale":[
				0.019999997690320015,
				0.01269999984651804,
				0.034999996423721313
			],
			"translation":[
				-0.01186823844909668,
				0.15954536199569702,
				0
			]
		},
		{
			"mesh":18,
			"name":"Cone.002",
			"scale":[
				0.009999998845160007,
				0,
				0.009999998845160007
			],
			"translation":[
				0.018504858016967773,
				0.16323113441467285,
				0
			]
		},
		{
			"mesh":19,
			"name":"Icosphere.003",
			"scale":[
				0.006676775868982077,
				0.01269999984651804,
				0.00634999992325902
			],
			"translation":[
				0.018307775259017944,
				0.15367239713668823,
				0.0005332417786121368
			]
		},
		{
			"mesh":20,
			"name":"Icosphere.004",
			"scale":[
				0.010514607653021812,
				0.034999996423721313,
				0.014999998733401299
			],
			"translation":[
				-0.012628763914108276,
				0.21669816970825195,
				0.0002688392996788025
			]
		},
		{
			"mesh":21,
			"name":"Sphere",
			"scale":[
				0.047624994069337845,
				0.009524999186396599,
				0.04762498661875725
			],
			"translation":[
				0.0025559067726135254,
				0.15785083174705505,
				0
			]
		},
		{
			"mesh":22,
			"name":"Top",
			"scale":[
				0.022224999964237213,
				0.05079999938607216,
				0.022224999964237213
			],
			"translation":[
				0.0026073455810546875,
				0.35578736662864685,
				0
			]
		},
		{
			"mesh":23,
			"name":"top blob",
			"scale":[
				0.019999997690320015,
				0.009524999186396599,
				0.019999993965029716
			],
			"translation":[
				0.0025559067726135254,
				0.30574363470077515,
				0
			]
		},
		{
			"mesh":24,
			"name":"Upside down base",
			"rotation":[
				0,
				0,
				1,
				7.549789415861596e-08
			],
			"scale":[
				0.05079999938607216,
				0.06349996477365494,
				0.05079999938607216
			],
			"translation":[
				0.0026073455810546875,
				0.15240000188350677,
				0
			]
		},
		{
			"children":[
				62,
				63,
				64,
				65,
				66,
				67,
				68,
				69,
				70
			],
			"name":"lavalamp",
			"scale":[
				3.3940200805664062,
				3.3940200805664062,
				3.3940200805664062
			],
			"translation":[
				1.196497917175293,
				-0.10763182491064072,
				0.12063807249069214
			]
		},
		{
			"mesh":25,
			"name":"coffee_black_01",
			"scale":[
				1.7156318426132202,
				1.7156318426132202,
				1.7156318426132202
			],
			"translation":[
				-0.6297767162322998,
				-0.02170756459236145,
				0.3888949155807495
			]
		},
		{
			"mesh":26,
			"name":"coffee_black_02",
			"scale":[
				1.7156318426132202,
				1.7156318426132202,
				1.7156318426132202
			],
			"translation":[
				-0.6297767162322998,
				-0.10990272462368011,
				0.3888949155807495
			]
		}
	],
	"animations":[
		{
			"channels":[
				{
					"sampler":0,
					"target":{
						"node":11,
						"path":"translation"
					}
				},
				{
					"sampler":1,
					"target":{
						"node":11,
						"path":"rotation"
					}
				},
				{
					"sampler":2,
					"target":{
						"node":11,
						"path":"scale"
					}
				},
				{
					"sampler":3,
					"target":{
						"node":6,
						"path":"translation"
					}
				},
				{
					"sampler":4,
					"target":{
						"node":6,
						"path":"rotation"
					}
				},
				{
					"sampler":5,
					"target":{
						"node":6,
						"path":"scale"
					}
				},
				{
					"sampler":6,
					"target":{
						"node":5,
						"path":"translation"
					}
				},
				{
					"sampler":7,
					"target":{
						"node":5,
						"path":"rotation"
					}
				},
				{
					"sampler":8,
					"target":{
						"node":5,
						"path":"scale"
					}
				},
				{
					"sampler":9,
					"target":{
						"node":4,
						"path":"translation"
					}
				},
				{
					"sampler":10,
					"target":{
						"node":4,
						"path":"rotation"
					}
				},
				{
					"sampler":11,
					"target":{
						"node":4,
						"path":"scale"
					}
				},
				{
					"sampler":12,
					"target":{
						"node":3,
						"path":"translation"
					}
				},
				{
					"sampler":13,
					"target":{
						"node":3,
						"path":"rotation"
					}
				},
				{
					"sampler":14,
					"target":{
						"node":3,
						"path":"scale"
					}
				},
				{
					"sampler":15,
					"target":{
						"node":2,
						"path":"translation"
					}
				},
				{
					"sampler":16,
					"target":{
						"node":2,
						"path":"rotation"
					}
				},
				{
					"sampler":17,
					"target":{
						"node":2,
						"path":"scale"
					}
				},
				{
					"sampler":18,
					"target":{
						"node":8,
						"path":"translation"
					}
				},
				{
					"sampler":19,
					"target":{
						"node":8,
						"path":"rotation"
					}
				},
				{
					"sampler":20,
					"target":{
						"node":8,
						"path":"scale"
					}
				},
				{
					"sampler":21,
					"target":{
						"node":7,
						"path":"translation"
					}
				},
				{
					"sampler":22,
					"target":{
						"node":7,
						"path":"rotation"
					}
				},
				{
					"sampler":23,
					"target":{
						"node":7,
						"path":"scale"
					}
				},
				{
					"sampler":24,
					"target":{
						"node":10,
						"path":"translation"
					}
				},
				{
					"sampler":25,
					"target":{
						"node":10,
						"path":"rotation"
					}
				},
				{
					"sampler":26,
					"target":{
						"node":10,
						"path":"scale"
					}
				},
				{
					"sampler":27,
					"target":{
						"node":9,
						"path":"translation"
					}
				},
				{
					"sampler":28,
					"target":{
						"node":9,
						"path":"rotation"
					}
				},
				{
					"sampler":29,
					"target":{
						"node":9,
						"path":"scale"
					}
				}
			],
			"name":"Take 001",
			"samplers":[
				{
					"input":138,
					"interpolation":"STEP",
					"output":139
				},
				{
					"input":138,
					"interpolation":"STEP",
					"output":140
				},
				{
					"input":138,
					"interpolation":"STEP",
					"output":141
				},
				{
					"input":138,
					"interpolation":"STEP",
					"output":142
				},
				{
					"input":143,
					"interpolation":"LINEAR",
					"output":144
				},
				{
					"input":138,
					"interpolation":"STEP",
					"output":145
				},
				{
					"input":138,
					"interpolation":"STEP",
					"output":146
				},
				{
					"input":143,
					"interpolation":"LINEAR",
					"output":147
				},
				{
					"input":138,
					"interpolation":"STEP",
					"output":148
				},
				{
					"input":138,
					"interpolation":"STEP",
					"output":149
				},
				{
					"input":143,
					"interpolation":"LINEAR",
					"output":150
				},
				{
					"input":138,
					"interpolation":"STEP",
					"output":151
				},
				{
					"input":138,
					"interpolation":"STEP",
					"output":152
				},
				{
					"input":143,
					"interpolation":"LINEAR",
					"output":153
				},
				{
					"input":138,
					"interpolation":"STEP",
					"output":141
				},
				{
					"input":138,
					"interpolation":"STEP",
					"output":154
				},
				{
					"input":138,
					"interpolation":"STEP",
					"output":155
				},
				{
					"input":138,
					"interpolation":"STEP",
					"output":156
				},
				{
					"input":138,
					"interpolation":"STEP",
					"output":157
				},
				{
					"input":138,
					"interpolation":"STEP",
					"output":158
				},
				{
					"input":138,
					"interpolation":"STEP",
					"output":159
				},
				{
					"input":143,
					"interpolation":"LINEAR",
					"output":160
				},
				{
					"input":138,
					"interpolation":"STEP",
					"output":161
				},
				{
					"input":138,
					"interpolation":"STEP",
					"output":159
				},
				{
					"input":138,
					"interpolation":"STEP",
					"output":162
				},
				{
					"input":138,
					"interpolation":"STEP",
					"output":163
				},
				{
					"input":138,
					"interpolation":"STEP",
					"output":164
				},
				{
					"input":143,
					"interpolation":"LINEAR",
					"output":165
				},
				{
					"input":138,
					"interpolation":"STEP",
					"output":166
				},
				{
					"input":138,
					"interpolation":"STEP",
					"output":167
				}
			]
		},
		{
			"channels":[
				{
					"sampler":0,
					"target":{
						"node":34,
						"path":"translation"
					}
				},
				{
					"sampler":1,
					"target":{
						"node":34,
						"path":"rotation"
					}
				},
				{
					"sampler":2,
					"target":{
						"node":34,
						"path":"scale"
					}
				},
				{
					"sampler":3,
					"target":{
						"node":28,
						"path":"translation"
					}
				},
				{
					"sampler":4,
					"target":{
						"node":28,
						"path":"rotation"
					}
				},
				{
					"sampler":5,
					"target":{
						"node":28,
						"path":"scale"
					}
				},
				{
					"sampler":6,
					"target":{
						"node":27,
						"path":"translation"
					}
				},
				{
					"sampler":7,
					"target":{
						"node":27,
						"path":"rotation"
					}
				},
				{
					"sampler":8,
					"target":{
						"node":27,
						"path":"scale"
					}
				},
				{
					"sampler":9,
					"target":{
						"node":26,
						"path":"translation"
					}
				},
				{
					"sampler":10,
					"target":{
						"node":26,
						"path":"rotation"
					}
				},
				{
					"sampler":11,
					"target":{
						"node":26,
						"path":"scale"
					}
				},
				{
					"sampler":12,
					"target":{
						"node":25,
						"path":"translation"
					}
				},
				{
					"sampler":13,
					"target":{
						"node":25,
						"path":"rotation"
					}
				},
				{
					"sampler":14,
					"target":{
						"node":25,
						"path":"scale"
					}
				},
				{
					"sampler":15,
					"target":{
						"node":24,
						"path":"translation"
					}
				},
				{
					"sampler":16,
					"target":{
						"node":24,
						"path":"rotation"
					}
				},
				{
					"sampler":17,
					"target":{
						"node":24,
						"path":"scale"
					}
				},
				{
					"sampler":18,
					"target":{
						"node":30,
						"path":"translation"
					}
				},
				{
					"sampler":19,
					"target":{
						"node":30,
						"path":"rotation"
					}
				},
				{
					"sampler":20,
					"target":{
						"node":30,
						"path":"scale"
					}
				},
				{
					"sampler":21,
					"target":{
						"node":29,
						"path":"translation"
					}
				},
				{
					"sampler":22,
					"target":{
						"node":29,
						"path":"rotation"
					}
				},
				{
					"sampler":23,
					"target":{
						"node":29,
						"path":"scale"
					}
				},
				{
					"sampler":24,
					"target":{
						"node":32,
						"path":"translation"
					}
				},
				{
					"sampler":25,
					"target":{
						"node":32,
						"path":"rotation"
					}
				},
				{
					"sampler":26,
					"target":{
						"node":32,
						"path":"scale"
					}
				},
				{
					"sampler":27,
					"target":{
						"node":31,
						"path":"translation"
					}
				},
				{
					"sampler":28,
					"target":{
						"node":31,
						"path":"rotation"
					}
				},
				{
					"sampler":29,
					"target":{
						"node":31,
						"path":"scale"
					}
				},
				{
					"sampler":30,
					"target":{
						"node":36,
						"path":"translation"
					}
				},
				{
					"sampler":31,
					"target":{
						"node":36,
						"path":"rotation"
					}
				},
				{
					"sampler":32,
					"target":{
						"node":36,
						"path":"scale"
					}
				},
				{
					"sampler":33,
					"target":{
						"node":37,
						"path":"translation"
					}
				},
				{
					"sampler":34,
					"target":{
						"node":37,
						"path":"rotation"
					}
				},
				{
					"sampler":35,
					"target":{
						"node":37,
						"path":"scale"
					}
				},
				{
					"sampler":36,
					"target":{
						"node":43,
						"path":"translation"
					}
				},
				{
					"sampler":37,
					"target":{
						"node":43,
						"path":"rotation"
					}
				},
				{
					"sampler":38,
					"target":{
						"node":43,
						"path":"scale"
					}
				},
				{
					"sampler":39,
					"target":{
						"node":41,
						"path":"translation"
					}
				},
				{
					"sampler":40,
					"target":{
						"node":41,
						"path":"rotation"
					}
				},
				{
					"sampler":41,
					"target":{
						"node":41,
						"path":"scale"
					}
				},
				{
					"sampler":42,
					"target":{
						"node":47,
						"path":"translation"
					}
				},
				{
					"sampler":43,
					"target":{
						"node":47,
						"path":"rotation"
					}
				},
				{
					"sampler":44,
					"target":{
						"node":47,
						"path":"scale"
					}
				},
				{
					"sampler":45,
					"target":{
						"node":45,
						"path":"translation"
					}
				},
				{
					"sampler":46,
					"target":{
						"node":45,
						"path":"rotation"
					}
				},
				{
					"sampler":47,
					"target":{
						"node":45,
						"path":"scale"
					}
				},
				{
					"sampler":48,
					"target":{
						"node":51,
						"path":"translation"
					}
				},
				{
					"sampler":49,
					"target":{
						"node":51,
						"path":"rotation"
					}
				},
				{
					"sampler":50,
					"target":{
						"node":51,
						"path":"scale"
					}
				},
				{
					"sampler":51,
					"target":{
						"node":49,
						"path":"translation"
					}
				},
				{
					"sampler":52,
					"target":{
						"node":49,
						"path":"rotation"
					}
				},
				{
					"sampler":53,
					"target":{
						"node":49,
						"path":"scale"
					}
				},
				{
					"sampler":54,
					"target":{
						"node":55,
						"path":"translation"
					}
				},
				{
					"sampler":55,
					"target":{
						"node":55,
						"path":"rotation"
					}
				},
				{
					"sampler":56,
					"target":{
						"node":55,
						"path":"scale"
					}
				},
				{
					"sampler":57,
					"target":{
						"node":53,
						"path":"translation"
					}
				},
				{
					"sampler":58,
					"target":{
						"node":53,
						"path":"rotation"
					}
				},
				{
					"sampler":59,
					"target":{
						"node":53,
						"path":"scale"
					}
				},
				{
					"sampler":60,
					"target":{
						"node":59,
						"path":"translation"
					}
				},
				{
					"sampler":61,
					"target":{
						"node":59,
						"path":"rotation"
					}
				},
				{
					"sampler":62,
					"target":{
						"node":59,
						"path":"scale"
					}
				},
				{
					"sampler":63,
					"target":{
						"node":57,
						"path":"translation"
					}
				},
				{
					"sampler":64,
					"target":{
						"node":57,
						"path":"rotation"
					}
				},
				{
					"sampler":65,
					"target":{
						"node":57,
						"path":"scale"
					}
				}
			],
			"name":"Take 001.002",
			"samplers":[
				{
					"input":168,
					"interpolation":"STEP",
					"output":169
				},
				{
					"input":168,
					"interpolation":"STEP",
					"output":170
				},
				{
					"input":168,
					"interpolation":"STEP",
					"output":171
				},
				{
					"input":168,
					"interpolation":"STEP",
					"output":172
				},
				{
					"input":173,
					"interpolation":"LINEAR",
					"output":174
				},
				{
					"input":168,
					"interpolation":"STEP",
					"output":175
				},
				{
					"input":168,
					"interpolation":"STEP",
					"output":176
				},
				{
					"input":173,
					"interpolation":"LINEAR",
					"output":177
				},
				{
					"input":168,
					"interpolation":"STEP",
					"output":178
				},
				{
					"input":168,
					"interpolation":"STEP",
					"output":179
				},
				{
					"input":173,
					"interpolation":"LINEAR",
					"output":180
				},
				{
					"input":168,
					"interpolation":"STEP",
					"output":181
				},
				{
					"input":168,
					"interpolation":"STEP",
					"output":182
				},
				{
					"input":173,
					"interpolation":"LINEAR",
					"output":183
				},
				{
					"input":168,
					"interpolation":"STEP",
					"output":184
				},
				{
					"input":168,
					"interpolation":"STEP",
					"output":185
				},
				{
					"input":168,
					"interpolation":"STEP",
					"output":186
				},
				{
					"input":168,
					"interpolation":"STEP",
					"output":187
				},
				{
					"input":168,
					"interpolation":"STEP",
					"output":188
				},
				{
					"input":173,
					"interpolation":"LINEAR",
					"output":189
				},
				{
					"input":168,
					"interpolation":"STEP",
					"output":190
				},
				{
					"input":168,
					"interpolation":"STEP",
					"output":191
				},
				{
					"input":168,
					"interpolation":"STEP",
					"output":192
				},
				{
					"input":168,
					"interpolation":"STEP",
					"output":193
				},
				{
					"input":168,
					"interpolation":"STEP",
					"output":194
				},
				{
					"input":173,
					"interpolation":"LINEAR",
					"output":195
				},
				{
					"input":168,
					"interpolation":"STEP",
					"output":196
				},
				{
					"input":168,
					"interpolation":"STEP",
					"output":197
				},
				{
					"input":168,
					"interpolation":"STEP",
					"output":198
				},
				{
					"input":168,
					"interpolation":"STEP",
					"output":184
				},
				{
					"input":168,
					"interpolation":"STEP",
					"output":199
				},
				{
					"input":173,
					"interpolation":"LINEAR",
					"output":200
				},
				{
					"input":168,
					"interpolation":"STEP",
					"output":201
				},
				{
					"input":168,
					"interpolation":"STEP",
					"output":202
				},
				{
					"input":173,
					"interpolation":"LINEAR",
					"output":203
				},
				{
					"input":168,
					"interpolation":"STEP",
					"output":201
				},
				{
					"input":168,
					"interpolation":"STEP",
					"output":204
				},
				{
					"input":168,
					"interpolation":"STEP",
					"output":205
				},
				{
					"input":168,
					"interpolation":"STEP",
					"output":206
				},
				{
					"input":168,
					"interpolation":"STEP",
					"output":207
				},
				{
					"input":168,
					"interpolation":"STEP",
					"output":208
				},
				{
					"input":168,
					"interpolation":"STEP",
					"output":181
				},
				{
					"input":173,
					"interpolation":"LINEAR",
					"output":209
				},
				{
					"input":168,
					"interpolation":"STEP",
					"output":205
				},
				{
					"input":168,
					"interpolation":"STEP",
					"output":206
				},
				{
					"input":168,
					"interpolation":"STEP",
					"output":210
				},
				{
					"input":168,
					"interpolation":"STEP",
					"output":208
				},
				{
					"input":168,
					"interpolation":"STEP",
					"output":181
				},
				{
					"input":173,
					"interpolation":"LINEAR",
					"output":211
				},
				{
					"input":168,
					"interpolation":"STEP",
					"output":205
				},
				{
					"input":168,
					"interpolation":"STEP",
					"output":206
				},
				{
					"input":168,
					"interpolation":"STEP",
					"output":212
				},
				{
					"input":168,
					"interpolation":"STEP",
					"output":208
				},
				{
					"input":168,
					"interpolation":"STEP",
					"output":181
				},
				{
					"input":173,
					"interpolation":"LINEAR",
					"output":213
				},
				{
					"input":168,
					"interpolation":"STEP",
					"output":205
				},
				{
					"input":168,
					"interpolation":"STEP",
					"output":206
				},
				{
					"input":168,
					"interpolation":"STEP",
					"output":214
				},
				{
					"input":168,
					"interpolation":"STEP",
					"output":208
				},
				{
					"input":168,
					"interpolation":"STEP",
					"output":181
				},
				{
					"input":173,
					"interpolation":"LINEAR",
					"output":215
				},
				{
					"input":168,
					"interpolation":"STEP",
					"output":205
				},
				{
					"input":168,
					"interpolation":"STEP",
					"output":206
				},
				{
					"input":168,
					"interpolation":"STEP",
					"output":216
				},
				{
					"input":168,
					"interpolation":"STEP",
					"output":208
				},
				{
					"input":168,
					"interpolation":"STEP",
					"output":181
				}
			]
		},
		{
			"channels":[
				{
					"sampler":0,
					"target":{
						"node":63,
						"path":"scale"
					}
				}
			],
			"name":"Cone.001Action",
			"samplers":[
				{
					"input":217,
					"interpolation":"LINEAR",
					"output":218
				}
			]
		},
		{
			"channels":[
				{
					"sampler":0,
					"target":{
						"node":64,
						"path":"scale"
					}
				}
			],
			"name":"Cone.002Action",
			"samplers":[
				{
					"input":219,
					"interpolation":"LINEAR",
					"output":220
				}
			]
		},
		{
			"channels":[
				{
					"sampler":0,
					"target":{
						"node":65,
						"path":"translation"
					}
				},
				{
					"sampler":1,
					"target":{
						"node":65,
						"path":"scale"
					}
				}
			],
			"name":"Icosphere.003Action",
			"samplers":[
				{
					"input":221,
					"interpolation":"LINEAR",
					"output":222
				},
				{
					"input":221,
					"interpolation":"LINEAR",
					"output":223
				}
			]
		},
		{
			"channels":[
				{
					"sampler":0,
					"target":{
						"node":66,
						"path":"translation"
					}
				},
				{
					"sampler":1,
					"target":{
						"node":66,
						"path":"scale"
					}
				}
			],
			"name":"Icosphere.004Action",
			"samplers":[
				{
					"input":224,
					"interpolation":"LINEAR",
					"output":225
				},
				{
					"input":224,
					"interpolation":"LINEAR",
					"output":226
				}
			]
		},
		{
			"channels":[
				{
					"sampler":0,
					"target":{
						"node":69,
						"path":"scale"
					}
				}
			],
			"name":"top blobAction",
			"samplers":[
				{
					"input":227,
					"interpolation":"LINEAR",
					"output":228
				}
			]
		}
	],
	"materials":[
		{
			"alphaMode":"BLEND",
			"doubleSided":true,
			"extensions":{
				"KHR_materials_specular":{
					"specularColorFactor":[
						1.600000023841858,
						1.600000023841858,
						1.600000023841858
					]
				},
				"KHR_materials_ior":{
					"ior":1
				}
			},
			"name":"None",
			"pbrMetallicRoughness":{
				"baseColorTexture":{
					"index":0
				},
				"metallicFactor":0
			}
		},
		{
			"alphaMode":"BLEND",
			"doubleSided":true,
			"extensions":{
				"KHR_materials_specular":{
					"specularColorFactor":[
						1.600000023841858,
						1.600000023841858,
						1.600000023841858
					]
				},
				"KHR_materials_ior":{
					"ior":1
				}
			},
			"name":"None_DIFFUSE.003",
			"pbrMetallicRoughness":{
				"baseColorTexture":{
					"index":1
				},
				"metallicFactor":0
			}
		},
		{
			"doubleSided":true,
			"name":"lambert1",
			"pbrMetallicRoughness":{
				"baseColorTexture":{
					"index":2
				},
				"metallicFactor":0,
				"roughnessFactor":0.5
			}
		},
		{
			"alphaMode":"BLEND",
			"doubleSided":true,
			"extensions":{
				"KHR_materials_specular":{
					"specularColorFactor":[
						1.600000023841858,
						1.600000023841858,
						1.600000023841858
					]
				},
				"KHR_materials_ior":{
					"ior":1
				}
			},
			"name":"None_1.png",
			"pbrMetallicRoughness":{
				"baseColorTexture":{
					"index":3
				},
				"metallicFactor":0
			}
		},
		{
			"alphaMode":"BLEND",
			"doubleSided":true,
			"name":"glass",
			"pbrMetallicRoughness":{
				"baseColorTexture":{
					"index":4
				},
				"metallicFactor":0,
				"roughnessFactor":0.5
			}
		},
		{
			"doubleSided":true,
			"name":"Material.007",
			"pbrMetallicRoughness":{
				"baseColorFactor":[
					0.44873046875,
					0.430419921875,
					0.3935546875,
					1
				],
				"metallicFactor":0,
				"roughnessFactor":0.5
			}
		},
		{
			"doubleSided":true,
			"name":"Material.008",
			"pbrMetallicRoughness":{
				"baseColorFactor":[
					0.006370000075548887,
					0.006370000075548887,
					0.006370000075548887,
					1
				],
				"metallicFactor":0,
				"roughnessFactor":0.5
			}
		},
		{
			"doubleSided":true,
			"extensions":{
				"KHR_materials_specular":{
					"specularFactor":0
				}
			},
			"name":"CdMaterial-blu",
			"pbrMetallicRoughness":{
				"baseColorTexture":{
					"index":5
				},
				"metallicFactor":0
			}
		},
		{
			"doubleSided":true,
			"extensions":{
				"KHR_materials_specular":{
					"specularFactor":0
				}
			},
			"name":"CdMaterial-clown",
			"pbrMetallicRoughness":{
				"baseColorTexture":{
					"index":6
				},
				"metallicFactor":0
			}
		},
		{
			"doubleSided":true,
			"name":"Material",
			"pbrMetallicRoughness":{
				"baseColorTexture":{
					"index":7
				},
				"metallicFactor":0
			}
		},
		{
			"doubleSided":true,
			"name":"UVs",
			"pbrMetallicRoughness":{
				"baseColorTexture":{
					"index":8
				},
				"metallicFactor":0,
				"roughnessFactor":0.5
			}
		},
		{
			"doubleSided":true,
			"name":"Material.004",
			"pbrMetallicRoughness":{
				"baseColorFactor":[
					0.0020634185057133436,
					0.0020634185057133436,
					0.0020634185057133436,
					1
				],
				"metallicFactor":0,
				"roughnessFactor":0.5666666626930237
			}
		},
		{
			"doubleSided":true,
			"name":"Material.009",
			"pbrMetallicRoughness":{
				"baseColorFactor":[
					0.2978515625,
					0.298828125,
					0.263427734375,
					1
				],
				"metallicFactor":0,
				"roughnessFactor":0.5
			}
		},
		{
			"doubleSided":true,
			"name":"scrivania",
			"pbrMetallicRoughness":{
				"baseColorFactor":[
					0.01722467690706253,
					0.0024929363280534744,
					0.014251270331442356,
					1
				],
				"metallicFactor":0,
				"roughnessFactor":0.5
			}
		},
		{
			"doubleSided":true,
			"name":"topview",
			"pbrMetallicRoughness":{
				"baseColorTexture":{
					"index":9
				},
				"metallicFactor":0,
				"roughnessFactor":0.5
			}
		},
		{
			"doubleSided":true,
			"name":"sideview",
			"pbrMetallicRoughness":{
				"baseColorTexture":{
					"index":10
				},
				"metallicFactor":0,
				"roughnessFactor":0.5
			}
		},
		{
			"doubleSided":true,
			"name":"bottomview",
			"pbrMetallicRoughness":{
				"baseColorTexture":{
					"index":11
				},
				"metallicFactor":0,
				"roughnessFactor":0.5
			}
		},
		{
			"doubleSided":true,
			"name":"edge",
			"pbrMetallicRoughness":{
				"baseColorTexture":{
					"index":12
				},
				"metallicFactor":0,
				"roughnessFactor":0.6227272748947144
			}
		},
		{
			"doubleSided":true,
			"extensions":{
				"KHR_materials_specular":{
					"specularColorFactor":[
						0.5400000214576721,
						0.5400000214576721,
						0.5400000214576721
					]
				}
			},
			"name":"_Blue_Tang_v1_l3:_Blue_Tang_v3",
			"pbrMetallicRoughness":{
				"baseColorTexture":{
					"index":13
				},
				"metallicFactor":0,
				"roughnessFactor":0.3144345283508301
			}
		},
		{
			"alphaMode":"BLEND",
			"doubleSided":true,
			"name":"M_Flowerpot",
			"pbrMetallicRoughness":{
				"baseColorTexture":{
					"index":14
				},
				"metallicFactor":0
			}
		},
		{
			"doubleSided":true,
			"extensions":{
				"KHR_materials_clearcoat":{
					"clearcoatRoughnessFactor":0
				},
				"KHR_materials_transmission":{
					"transmissionFactor":1
				}
			},
			"name":"Material.015",
			"pbrMetallicRoughness":{
				"baseColorFactor":[
					0.9704163074493408,
					0.3004719316959381,
					0.9848872423171997,
					1
				],
				"metallicFactor":0,
				"roughnessFactor":0
			}
		},
		{
			"doubleSided":true,
			"name":"Material.013",
			"pbrMetallicRoughness":{
				"baseColorFactor":[
					0.7991032004356384,
					0.2269657850265503,
					0.04817185550928116,
					1
				],
				"metallicFactor":0,
				"roughnessFactor":0.5
			}
		},
		{
			"doubleSided":true,
			"name":"Material.014",
			"pbrMetallicRoughness":{
				"baseColorFactor":[
					0.7991032004356384,
					0.2269657850265503,
					0.04817185550928116,
					1
				],
				"metallicFactor":0,
				"roughnessFactor":0.5
			}
		},
		{
			"doubleSided":true,
			"name":"Material.011",
			"pbrMetallicRoughness":{
				"baseColorFactor":[
					0.7991032004356384,
					0.2269657850265503,
					0.04817185550928116,
					1
				],
				"metallicFactor":0,
				"roughnessFactor":0.5
			}
		},
		{
			"doubleSided":true,
			"name":"Material.012",
			"pbrMetallicRoughness":{
				"baseColorFactor":[
					0.7991032004356384,
					0.2269657850265503,
					0.04817185550928116,
					1
				],
				"metallicFactor":0,
				"roughnessFactor":0.5
			}
		},
		{
			"doubleSided":true,
			"name":"Material.006",
			"pbrMetallicRoughness":{
				"baseColorFactor":[
					0.7991032004356384,
					0.2269657850265503,
					0.04817185550928116,
					1
				],
				"metallicFactor":0,
				"roughnessFactor":0.5
			}
		},
		{
			"doubleSided":true,
			"extensions":{
				"KHR_materials_sheen":{
					"sheenColorFactor":[
						1.0,
						1.0,
						1.0
					],
					"sheenRoughnessFactor":0.5
				}
			},
			"name":"Material.016",
			"pbrMetallicRoughness":{
				"baseColorFactor":[
					0.13843166828155518,
					0.1384316086769104,
					0.13843165338039398,
					1
				],
				"metallicFactor":0.26241135597229004,
				"roughnessFactor":0
			}
		},
		{
			"doubleSided":true,
			"name":"Material.010",
			"pbrMetallicRoughness":{
				"baseColorFactor":[
					0.2541521489620209,
					0.07618539780378342,
					0.018500231206417084,
					1
				],
				"metallicFactor":0,
				"roughnessFactor":0.5
			}
		},
		{
			"doubleSided":true,
			"name":"Material.017",
			"pbrMetallicRoughness":{
				"baseColorFactor":[
					0.13843166828155518,
					0.1384316086769104,
					0.13843165338039398,
					1
				],
				"metallicFactor":0,
				"roughnessFactor":0.5
			}
		},
		{
			"doubleSided":true,
			"name":"coffee_BLACK",
			"pbrMetallicRoughness":{
				"baseColorTexture":{
					"index":15
				},
				"metallicFactor":0,
				"roughnessFactor":0.5
			}
		}
	],
	"meshes":[
		{
			"name":"s4studio_mesh_1.001",
			"primitives":[
				{
					"attributes":{
						"POSITION":0,
						"NORMAL":1,
						"TEXCOORD_0":2
					},
					"indices":3,
					"material":0
				}
			]
		},
		{
			"name":"water",
			"primitives":[
				{
					"attributes":{
						"POSITION":4,
						"NORMAL":5,
						"TEXCOORD_0":6
					},
					"indices":7,
					"material":1
				}
			]
		},
		{
			"name":"Mesh",
			"primitives":[
				{
					"attributes":{
						"POSITION":8,
						"NORMAL":9,
						"TEXCOORD_0":10,
						"JOINTS_0":11,
						"WEIGHTS_0":12
					},
					"indices":13,
					"material":2
				}
			]
		},
		{
			"name":"shell.002",
			"primitives":[
				{
					"attributes":{
						"POSITION":15,
						"NORMAL":16,
						"TEXCOORD_0":17
					},
					"indices":18,
					"material":3
				}
			]
		},
		{
			"name":"shell.003",
			"primitives":[
				{
					"attributes":{
						"POSITION":19,
						"NORMAL":20,
						"TEXCOORD_0":21
					},
					"indices":22,
					"material":4
				}
			]
		},
		{
			"name":"tastiera-mouse",
			"primitives":[
				{
					"attributes":{
						"POSITION":23,
						"NORMAL":24,
						"TEXCOORD_0":25
					},
					"indices":26,
					"material":5
				},
				{
					"attributes":{
						"POSITION":27,
						"NORMAL":28,
						"TEXCOORD_0":29
					},
					"indices":30,
					"material":6
				}
			]
		},
		{
			"name":"Cylinder",
			"primitives":[
				{
					"attributes":{
						"POSITION":31,
						"NORMAL":32,
						"TEXCOORD_0":33
					},
					"indices":34,
					"material":7
				}
			]
		},
		{
			"name":"Cylinder.001",
			"primitives":[
				{
					"attributes":{
						"POSITION":35,
						"NORMAL":36,
						"TEXCOORD_0":37
					},
					"indices":34,
					"material":8
				}
			]
		},
		{
			"name":"walkman",
			"primitives":[
				{
					"attributes":{
						"POSITION":38,
						"NORMAL":39,
						"TEXCOORD_0":40
					},
					"indices":41,
					"material":9
				},
				{
					"attributes":{
						"POSITION":42,
						"NORMAL":43,
						"TEXCOORD_0":44
					},
					"indices":45,
					"material":10
				},
				{
					"attributes":{
						"POSITION":46,
						"NORMAL":47,
						"TEXCOORD_0":48
					},
					"indices":49,
					"material":11
				}
			]
		},
		{
			"name":"tastiera-mouse.002",
			"primitives":[
				{
					"attributes":{
						"POSITION":50,
						"NORMAL":51,
						"TEXCOORD_0":52
					},
					"indices":53,
					"material":12
				}
			]
		},
		{
			"name":"mouse",
			"primitives":[
				{
					"attributes":{
						"POSITION":54,
						"NORMAL":55,
						"TEXCOORD_0":56
					},
					"indices":57,
					"material":5
				},
				{
					"attributes":{
						"POSITION":58,
						"NORMAL":59,
						"TEXCOORD_0":60
					},
					"indices":61,
					"material":12
				}
			]
		},
		{
			"name":"Plane",
			"primitives":[
				{
					"attributes":{
						"POSITION":62,
						"NORMAL":63,
						"TEXCOORD_0":64
					},
					"indices":65,
					"material":13
				}
			]
		},
		{
			"name":"Circle",
			"primitives":[
				{
					"attributes":{
						"POSITION":66,
						"NORMAL":67,
						"TEXCOORD_0":68
					},
					"indices":69,
					"material":14
				},
				{
					"attributes":{
						"POSITION":70,
						"NORMAL":71,
						"TEXCOORD_0":72
					},
					"indices":73,
					"material":15
				},
				{
					"attributes":{
						"POSITION":74,
						"NORMAL":75,
						"TEXCOORD_0":76
					},
					"indices":77,
					"material":16
				},
				{
					"attributes":{
						"POSITION":78,
						"NORMAL":79,
						"TEXCOORD_0":80
					},
					"indices":81,
					"material":17
				}
			]
		},
		{
			"name":"Mesh.001",
			"primitives":[
				{
					"attributes":{
						"POSITION":82,
						"NORMAL":83,
						"TEXCOORD_0":84,
						"JOINTS_0":85,
						"WEIGHTS_0":86
					},
					"indices":87,
					"material":18
				}
			]
		},
		{
			"name":"Cylinder.002",
			"primitives":[
				{
					"attributes":{
						"POSITION":89,
						"NORMAL":90,
						"TEXCOORD_0":91
					},
					"indices":92,
					"material":19
				}
			]
		},
		{
			"name":"Cube.002",
			"primitives":[
				{
					"attributes":{
						"POSITION":93,
						"NORMAL":94,
						"TEXCOORD_0":95
					},
					"indices":96,
					"material":19
				}
			]
		},
		{
			"name":"Cone.002",
			"primitives":[
				{
					"attributes":{
						"POSITION":97,
						"NORMAL":98,
						"TEXCOORD_0":99
					},
					"indices":100,
					"material":20
				}
			]
		},
		{
			"name":"Cone",
			"primitives":[
				{
					"attributes":{
						"POSITION":101,
						"NORMAL":102,
						"TEXCOORD_0":103
					},
					"indices":104,
					"material":21
				}
			]
		},
		{
			"name":"Cone.004",
			"primitives":[
				{
					"attributes":{
						"POSITION":105,
						"NORMAL":106,
						"TEXCOORD_0":107
					},
					"indices":104,
					"material":22
				}
			]
		},
		{
			"name":"Icosphere.003",
			"primitives":[
				{
					"attributes":{
						"POSITION":108,
						"NORMAL":109,
						"TEXCOORD_0":110
					},
					"indices":111,
					"material":23
				}
			]
		},
		{
			"name":"Icosphere.004",
			"primitives":[
				{
					"attributes":{
						"POSITION":112,
						"NORMAL":113,
						"TEXCOORD_0":114
					},
					"indices":111,
					"material":24
				}
			]
		},
		{
			"name":"Sphere",
			"primitives":[
				{
					"attributes":{
						"POSITION":115,
						"NORMAL":116,
						"TEXCOORD_0":117
					},
					"indices":118,
					"material":25
				}
			]
		},
		{
			"name":"Cone.003",
			"primitives":[
				{
					"attributes":{
						"POSITION":119,
						"NORMAL":120,
						"TEXCOORD_0":121
					},
					"indices":122,
					"material":26
				}
			]
		},
		{
			"name":"Sphere.001",
			"primitives":[
				{
					"attributes":{
						"POSITION":123,
						"NORMAL":124,
						"TEXCOORD_0":125
					},
					"indices":118,
					"material":27
				}
			]
		},
		{
			"name":"Cone.001",
			"primitives":[
				{
					"attributes":{
						"POSITION":126,
						"NORMAL":127,
						"TEXCOORD_0":128
					},
					"indices":129,
					"material":28
				}
			]
		},
		{
			"name":"Circle.010",
			"primitives":[
				{
					"attributes":{
						"POSITION":130,
						"NORMAL":131,
						"TEXCOORD_0":132
					},
					"indices":133,
					"material":29
				}
			]
		},
		{
			"name":"Circle.011",
			"primitives":[
				{
					"attributes":{
						"POSITION":134,
						"NORMAL":135,
						"TEXCOORD_0":136
					},
					"indices":137,
					"material":29
				}
			]
		}
	],
	"textures":[
		{
			"sampler":0,
			"source":0
		},
		{
			"sampler":0,
			"source":1
		},
		{
			"sampler":0,
			"source":2
		},
		{
			"sampler":0,
			"source":0
		},
		{
			"sampler":0,
			"source":0
		},
		{
			"sampler":0,
			"source":3
		},
		{
			"sampler":0,
			"source":4
		},
		{
			"sampler":0,
			"source":5
		},
		{
			"sampler":0,
			"source":6
		},
		{
			"sampler":0,
			"source":7
		},
		{
			"sampler":0,
			"source":8
		},
		{
			"sampler":0,
			"source":9
		},
		{
			"sampler":0,
			"source":7
		},
		{
			"sampler":0,
			"source":10
		},
		{
			"sampler":0,
			"source":11
		},
		{
			"sampler":0,
			"source":12
		}
	],
	"images":[
		{
			"mimeType":"image/png",
			"name":"1",
			"uri":"aquarium_textures/1.png"
		},
		{
			"mimeType":"image/png",
			"name":"2",
			"uri":"aquarium_textures/2.png"
		},
		{
			"mimeType":"image/png",
			"name":"lambert1_Base_Color",
			"uri":"aquarium_textures/lambert1_Base_Color.png"
		},
		{
			"mimeType":"image/png",
			"name":"cd-blu",
			"uri":"aquarium_textures/cd-blu.png"
		},
		{
			"mimeType":"image/png",
			"name":"cd-clown",
			"uri":"aquarium_textures/cd-clown.png"
		},
		{
			"mimeType":"image/png",
			"name":"diffuse_main_01",
			"uri":"aquarium_textures/diffuse_main_01.png"
		},
		{
			"mimeType":"image/png",
			"name":"headphones_test",
			"uri":"aquarium_textures/headphones_test.png"
		},
		{
			"mimeType":"image/jpeg",
			"name":"photo_2024-11-06_09-51-20",
			"uri":"aquarium_textures/photo_2024-11-06_09-51-20.jpg"
		},
		{
			"mimeType":"image/jpeg",
			"name":"photo_2024-11-06_09-51-13",
			"uri":"aquarium_textures/photo_2024-11-06_09-51-13.jpg"
		},
		{
			"mimeType":"image/jpeg",
			"name":"photo_2024-11-06_10-11-53",
			"uri":"aquarium_textures/photo_2024-11-06_10-11-53.jpg"
		},
		{
			"mimeType":"image/png",
			"name":"blue_tang_smooth_Albedo",
			"uri":"aquarium_textures/blue_tang_smooth_Albedo.png"
		},
		{
			"mimeType":"image/png",
			"name":"T_Flowerpot",
			"uri":"aquarium_textures/T_Flowerpot.png"
		},
		{
			"mimeType":"image/png",
			"name":"coffee_black",
			"uri":"aquarium_textures/coffee_black.png"
		}
	],
	"skins":[
		{
			"inverseBindMatrices":14,
			"joints":[
				11,
				6,
				5,
				4,
				3,
				2,
				8,
				7,
				10,
				9
			],
			"name":"CLOWNFISH"
		},
		{
			"inverseBindMatrices":88,
			"joints":[
				34,
				28,
				27,
				26,
				25,
				24,
				30,
				29,
				32,
				31
			],
			"name":"Blue_Tang_cv"
		}
	],
	"accessors":[
		{
			"bufferView":0,
			"componentType":5126,
			"count":5143,
			"max":[
				0.7747210264205933,
				0.446725994348526,
				0.12204000353813171
			],
			"min":[
				-0.3257710039615631,
				-0.8056730031967163,
				-0.9436529874801636
			],
			"type":"VEC3"
		},
		{
			"bufferView":1,
			"componentType":5126,
			"count":5143,
			"type":"VEC3"
		},
		{
			"bufferView":2,
			"componentType":5126,
			"count":5143,
			"type":"VEC2"
		},
		{
			"bufferView":3,
			"componentType":5123,
			"count":18534,
			"type":"SCALAR"
		},
		{
			"bufferView":4,
			"componentType":5126,
			"count":205,
			"max":[
				0.783873975276947,
				0.43518298864364624,
				-0.02201100066304207
			],
			"min":[
				-0.29155099391937256,
				-0.7458040118217468,
				-0.7217040061950684
			],
			"type":"VEC3"
		},
		{
			"bufferView":5,
			"componentType":5126,
			"count":205,
			"type":"VEC3"
		},
		{
			"bufferView":6,
			"componentType":5126,
			"count":205,
			"type":"VEC2"
		},
		{
			"bufferView":7,
			"componentType":5123,
			"count":810,
			"type":"SCALAR"
		},
		{
			"bufferView":8,
			"componentType":5126,
			"count":147,
			"max":[
				0.34458106756210327,
				0.4488149583339691,
				-0.004407914355397224
			],
			"min":[
				0.15362796187400818,
				0.3513484299182892,
				-0.06173229217529297
			],
			"type":"VEC3"
		},
		{
			"bufferView":9,
			"componentType":5126,
			"count":147,
			"type":"VEC3"
		},
		{
			"bufferView":10,
			"componentType":5126,
			"count":147,
			"type":"VEC2"
		},
		{
			"bufferView":11,
			"componentType":5121,
			"count":147,
			"type":"VEC4"
		},
		{
			"bufferView":12,
			"componentType":5126,
			"count":147,
			"type":"VEC4"
		},
		{
			"bufferView":13,
			"componentType":5123,
			"count":585,
			"type":"SCALAR"
		},
		{
			"bufferView":14,
			"componentType":5126,
			"count":10,
			"type":"MAT4"
		},
		{
			"bufferView":15,
			"componentType":5126,
			"count":354,
			"max":[
				0.7856799960136414,
				0.446725994348526,
				0.013023000210523605
			],
			"min":[
				-0.33108800649642944,
				-0.8037700057029724,
				-0.9436529874801636
			],
			"type":"VEC3"
		},
		{
			"bufferView":16,
			"componentType":5126,
			"count":354,
			"type":"VEC3"
		},
		{
			"bufferView":17,
			"componentType":5126,
			"count":354,
			"type":"VEC2"
		},
		{
			"bufferView":18,
			"componentType":5123,
			"count":1692,
			"type":"SCALAR"
		},
		{
			"bufferView":19,
			"componentType":5126,
			"count":183,
			"max":[
				0.6340050101280212,
				0.4416559934616089,
				-0.05627499893307686
			],
			"min":[
				-0.18797700107097626,
				0.16800199449062347,
				-0.8345670104026794
			],
			"type":"VEC3"
		},
		{
			"bufferView":20,
			"componentType":5126,
			"count":183,
			"type":"VEC3"
		},
		{
			"bufferView":21,
			"componentType":5126,
			"count":183,
			"type":"VEC2"
		},
		{
			"bufferView":22,
			"componentType":5123,
			"count":1032,
			"type":"SCALAR"
		},
		{
			"bufferView":23,
			"componentType":5126,
			"count":1157,
			"max":[
				-0.44832101464271545,
				1.5927530527114868,
				-0.030236000195145607
			],
			"min":[
				-2.129612922668457,
				0.865755021572113,
				-0.2749530076980591
			],
			"type":"VEC3"
		},
		{
			"bufferView":24,
			"componentType":5126,
			"count":1157,
			"type":"VEC3"
		},
		{
			"bufferView":25,
			"componentType":5126,
			"count":1157,
			"type":"VEC2"
		},
		{
			"bufferView":26,
			"componentType":5123,
			"count":3540,
			"type":"SCALAR"
		},
		{
			"bufferView":27,
			"componentType":5126,
			"count":140,
			"max":[
				-0.46280500292778015,
				1.5796929597854614,
				-0.08587600290775299
			],
			"min":[
				-2.1155059337615967,
				0.8778759837150574,
				-0.20659500360488892
			],
			"type":"VEC3"
		},
		{
			"bufferView":28,
			"componentType":5126,
			"count":140,
			"type":"VEC3"
		},
		{
			"bufferView":29,
			"componentType":5126,
			"count":140,
			"type":"VEC2"
		},
		{
			"bufferView":30,
			"componentType":5123,
			"count":348,
			"type":"SCALAR"
		},
		{
			"bufferView":31,
			"componentType":5126,
			"count":384,
			"max":[
				1,
				1,
				0.0013539999490603805
			],
			"min":[
				-1,
				-1,
				-0.0013539999490603805
			],
			"type":"VEC3"
		},
		{
			"bufferView":32,
			"componentType":5126,
			"count":384,
			"type":"VEC3"
		},
		{
			"bufferView":33,
			"componentType":5126,
			"count":384,
			"type":"VEC2"
		},
		{
			"bufferView":34,
			"componentType":5123,
			"count":768,
			"type":"SCALAR"
		},
		{
			"bufferView":35,
			"componentType":5126,
			"count":384,
			"max":[
				1,
				1,
				0.0013539999490603805
			],
			"min":[
				-1,
				-1,
				-0.0013539999490603805
			],
			"type":"VEC3"
		},
		{
			"bufferView":36,
			"componentType":5126,
			"count":384,
			"type":"VEC3"
		},
		{
			"bufferView":37,
			"componentType":5126,
			"count":384,
			"type":"VEC2"
		},
		{
			"bufferView":38,
			"componentType":5126,
			"count":664,
			"max":[
				0.5491405725479126,
				3.3347320556640625,
				1.1970735788345337
			],
			"min":[
				-0.7243384122848511,
				0.08328306674957275,
				-1.09413743019104
			],
			"type":"VEC3"
		},
		{
			"bufferView":39,
			"componentType":5126,
			"count":664,
			"type":"VEC3"
		},
		{
			"bufferView":40,
			"componentType":5126,
			"count":664,
			"type":"VEC2"
		},
		{
			"bufferView":41,
			"componentType":5123,
			"count":1227,
			"type":"SCALAR"
		},
		{
			"bufferView":42,
			"componentType":5126,
			"count":893,
			"max":[
				2.090182065963745,
				3.5935237407684326,
				2.42987060546875
			],
			"min":[
				-2.090182065963745,
				0.07241266965866089,
				-2.7138748168945312
			],
			"type":"VEC3"
		},
		{
			"bufferView":43,
			"componentType":5126,
			"count":893,
			"type":"VEC3"
		},
		{
			"bufferView":44,
			"componentType":5126,
			"count":893,
			"type":"VEC2"
		},
		{
			"bufferView":45,
			"componentType":5123,
			"count":1914,
			"type":"SCALAR"
		},
		{
			"bufferView":46,
			"componentType":5126,
			"count":1768,
			"max":[
				2.7774901390075684,
				3.549266815185547,
				3.229480743408203
			],
			"min":[
				-3.1183743476867676,
				0.06782694160938263,
				-2.960299491882324
			],
			"type":"VEC3"
		},
		{
			"bufferView":47,
			"componentType":5126,
			"count":1768,
			"type":"VEC3"
		},
		{
			"bufferView":48,
			"componentType":5126,
			"count":1768,
			"type":"VEC2"
		},
		{
			"bufferView":49,
			"componentType":5123,
			"count":2688,
			"type":"SCALAR"
		},
		{
			"bufferView":50,
			"componentType":5126,
			"count":1715,
			"max":[
				-0.614749014377594,
				1.511821985244751,
				-0.1726209968328476
			],
			"min":[
				-1.9708960056304932,
				0.9769020080566406,
				-0.29947999119758606
			],
			"type":"VEC3"
		},
		{
			"bufferView":51,
			"componentType":5126,
			"count":1715,
			"type":"VEC3"
		},
		{
			"bufferView":52,
			"componentType":5126,
			"count":1715,
			"type":"VEC2"
		},
		{
			"bufferView":53,
			"componentType":5123,
			"count":3336,
			"type":"SCALAR"
		},
		{
			"bufferView":54,
			"componentType":5126,
			"count":390,
			"max":[
				-0.020301999524235725,
				1.4263830184936523,
				-0.04057199880480766
			],
			"min":[
				-0.34543299674987793,
				0.9394350051879883,
				-0.18344399333000183
			],
			"type":"VEC3"
		},
		{
			"bufferView":55,
			"componentType":5126,
			"count":390,
			"type":"VEC3"
		},
		{
			"bufferView":56,
			"componentType":5126,
			"count":390,
			"type":"VEC2"
		},
		{
			"bufferView":57,
			"componentType":5123,
			"count":834,
			"type":"SCALAR"
		},
		{
			"bufferView":58,
			"componentType":5126,
			"count":56,
			"max":[
				-0.07802099734544754,
				1.0724660158157349,
				-0.17334100604057312
			],
			"min":[
				-0.24700599908828735,
				0.9822260141372681,
				-0.1897059977054596
			],
			"type":"VEC3"
		},
		{
			"bufferView":59,
			"componentType":5126,
			"count":56,
			"type":"VEC3"
		},
		{
			"bufferView":60,
			"componentType":5126,
			"count":56,
			"type":"VEC2"
		},
		{
			"bufferView":61,
			"componentType":5123,
			"count":126,
			"type":"SCALAR"
		},
		{
			"bufferView":62,
			"componentType":5126,
			"count":24,
			"max":[
				1,
				0.034657564014196396,
				1
			],
			"min":[
				-1,
				0,
				-1
			],
			"type":"VEC3"
		},
		{
			"bufferView":63,
			"componentType":5126,
			"count":24,
			"type":"VEC3"
		},
		{
			"bufferView":64,
			"componentType":5126,
			"count":24,
			"type":"VEC2"
		},
		{
			"bufferView":65,
			"componentType":5123,
			"count":36,
			"type":"SCALAR"
		},
		{
			"bufferView":66,
			"componentType":5126,
			"count":352,
			"max":[
				98.12615203857422,
				100.27204895019531,
				-51.586734771728516
			],
			"min":[
				-98.12615203857422,
				-95.98026275634766,
				-79.73653411865234
			],
			"type":"VEC3"
		},
		{
			"bufferView":67,
			"componentType":5126,
			"count":352,
			"type":"VEC3"
		},
		{
			"bufferView":68,
			"componentType":5126,
			"count":352,
			"type":"VEC2"
		},
		{
			"bufferView":69,
			"componentType":5123,
			"count":1050,
			"type":"SCALAR"
		},
		{
			"bufferView":70,
			"componentType":5126,
			"count":128,
			"max":[
				100,
				102.1458969116211,
				0
			],
			"min":[
				-100,
				-101.82372283935547,
				-79.73653411865234
			],
			"type":"VEC3"
		},
		{
			"bufferView":71,
			"componentType":5126,
			"count":128,
			"type":"VEC3"
		},
		{
			"bufferView":72,
			"componentType":5126,
			"count":128,
			"type":"VEC2"
		},
		{
			"bufferView":73,
			"componentType":5123,
			"count":192,
			"type":"SCALAR"
		},
		{
			"bufferView":74,
			"componentType":5126,
			"count":288,
			"max":[
				97.70062255859375,
				95.87689971923828,
				0
			],
			"min":[
				-97.70062255859375,
				-99.52434539794922,
				-45.13957977294922
			],
			"type":"VEC3"
		},
		{
			"bufferView":75,
			"componentType":5126,
			"count":288,
			"type":"VEC3"
		},
		{
			"bufferView":76,
			"componentType":5126,
			"count":288,
			"type":"VEC2"
		},
		{
			"bufferView":77,
			"componentType":5123,
			"count":666,
			"type":"SCALAR"
		},
		{
			"bufferView":78,
			"componentType":5126,
			"count":138,
			"max":[
				100,
				102.1458969116211,
				0
			],
			"min":[
				-100,
				-101.82372283935547,
				-79.73653411865234
			],
			"type":"VEC3"
		},
		{
			"bufferView":79,
			"componentType":5126,
			"count":138,
			"type":"VEC3"
		},
		{
			"bufferView":80,
			"componentType":5126,
			"count":138,
			"type":"VEC2"
		},
		{
			"bufferView":81,
			"componentType":5123,
			"count":384,
			"type":"SCALAR"
		},
		{
			"bufferView":82,
			"componentType":5126,
			"count":9483,
			"max":[
				0.34498271346092224,
				0.43921440839767456,
				0.03576156124472618
			],
			"min":[
				0.19761691987514496,
				0.3463016152381897,
				-0.021686624735593796
			],
			"type":"VEC3"
		},
		{
			"bufferView":83,
			"componentType":5126,
			"count":9483,
			"type":"VEC3"
		},
		{
			"bufferView":84,
			"componentType":5126,
			"count":9483,
			"type":"VEC2"
		},
		{
			"bufferView":85,
			"componentType":5121,
			"count":9483,
			"type":"VEC4"
		},
		{
			"bufferView":86,
			"componentType":5126,
			"count":9483,
			"type":"VEC4"
		},
		{
			"bufferView":87,
			"componentType":5123,
			"count":38640,
			"type":"SCALAR"
		},
		{
			"bufferView":88,
			"componentType":5126,
			"count":10,
			"type":"MAT4"
		},
		{
			"bufferView":89,
			"componentType":5126,
			"count":160,
			"max":[
				0.2200000137090683,
				0.4000000059604645,
				0.2200000137090683
			],
			"min":[
				-0.2200000137090683,
				0,
				-0.2200000137090683
			],
			"type":"VEC3"
		},
		{
			"bufferView":90,
			"componentType":5126,
			"count":160,
			"type":"VEC3"
		},
		{
			"bufferView":91,
			"componentType":5126,
			"count":160,
			"type":"VEC2"
		},
		{
			"bufferView":92,
			"componentType":5123,
			"count":276,
			"type":"SCALAR"
		},
		{
			"bufferView":93,
			"componentType":5126,
			"count":384,
			"max":[
				0.551969051361084,
				1.3144195079803467,
				0.432771235704422
			],
			"min":[
				-0.4669284522533417,
				0.30000001192092896,
				-0.44759267568588257
			],
			"type":"VEC3"
		},
		{
			"bufferView":94,
			"componentType":5126,
			"count":384,
			"type":"VEC3"
		},
		{
			"bufferView":95,
			"componentType":5126,
			"count":384,
			"type":"VEC2"
		},
		{
			"bufferView":96,
			"componentType":5123,
			"count":576,
			"type":"SCALAR"
		},
		{
			"bufferView":97,
			"componentType":5126,
			"count":257,
			"max":[
				1,
				0.5787009000778198,
				1
			],
			"min":[
				-1,
				-1,
				-1
			],
			"type":"VEC3"
		},
		{
			"bufferView":98,
			"componentType":5126,
			"count":257,
			"type":"VEC3"
		},
		{
			"bufferView":99,
			"componentType":5126,
			"count":257,
			"type":"VEC2"
		},
		{
			"bufferView":100,
			"componentType":5123,
			"count":570,
			"type":"SCALAR"
		},
		{
			"bufferView":101,
			"componentType":5126,
			"count":128,
			"max":[
				1,
				2.0581412315368652,
				1
			],
			"min":[
				-1,
				0.05814099311828613,
				-1
			],
			"type":"VEC3"
		},
		{
			"bufferView":102,
			"componentType":5126,
			"count":128,
			"type":"VEC3"
		},
		{
			"bufferView":103,
			"componentType":5126,
			"count":128,
			"type":"VEC2"
		},
		{
			"bufferView":104,
			"componentType":5123,
			"count":186,
			"type":"SCALAR"
		},
		{
			"bufferView":105,
			"componentType":5126,
			"count":128,
			"max":[
				1,
				1.9159337282180786,
				1
			],
			"min":[
				-1,
				-0.08406618237495422,
				-1
			],
			"type":"VEC3"
		},
		{
			"bufferView":106,
			"componentType":5126,
			"count":128,
			"type":"VEC3"
		},
		{
			"bufferView":107,
			"componentType":5126,
			"count":128,
			"type":"VEC2"
		},
		{
			"bufferView":108,
			"componentType":5126,
			"count":240,
			"max":[
				0.9510578513145447,
				1,
				0.9999999403953552
			],
			"min":[
				-0.9510578513145447,
				-1,
				-0.9999999403953552
			],
			"type":"VEC3"
		},
		{
			"bufferView":109,
			"componentType":5126,
			"count":240,
			"type":"VEC3"
		},
		{
			"bufferView":110,
			"componentType":5126,
			"count":240,
			"type":"VEC2"
		},
		{
			"bufferView":111,
			"componentType":5123,
			"count":240,
			"type":"SCALAR"
		},
		{
			"bufferView":112,
			"componentType":5126,
			"count":240,
			"max":[
				0.9510578513145447,
				1,
				0.9999999403953552
			],
			"min":[
				-0.9510578513145447,
				-1,
				-0.9999999403953552
			],
			"type":"VEC3"
		},
		{
			"bufferView":113,
			"componentType":5126,
			"count":240,
			"type":"VEC3"
		},
		{
			"bufferView":114,
			"componentType":5126,
			"count":240,
			"type":"VEC2"
		},
		{
			"bufferView":115,
			"componentType":5126,
			"count":1984,
			"max":[
				1.000000238418579,
				1,
				1.0000003576278687
			],
			"min":[
				-0.9999998211860657,
				-1,
				-1
			],
			"type":"VEC3"
		},
		{
			"bufferView":116,
			"componentType":5126,
			"count":1984,
			"type":"VEC3"
		},
		{
			"bufferView":117,
			"componentType":5126,
			"count":1984,
			"type":"VEC2"
		},
		{
			"bufferView":118,
			"componentType":5123,
			"count":2880,
			"type":"SCALAR"
		},
		{
			"bufferView":119,
			"componentType":5126,
			"count":193,
			"max":[
				1,
				0.1141199991106987,
				1
			],
			"min":[
				-1,
				-1,
				-1
			],
			"type":"VEC3"
		},
		{
			"bufferView":120,
			"componentType":5126,
			"count":193,
			"type":"VEC3"
		},
		{
			"bufferView":121,
			"componentType":5126,
			"count":193,
			"type":"VEC2"
		},
		{
			"bufferView":122,
			"componentType":5123,
			"count":378,
			"type":"SCALAR"
		},
		{
			"bufferView":123,
			"componentType":5126,
			"count":1984,
			"max":[
				1.014557957649231,
				0.7234071493148804,
				1.0103352069854736
			],
			"min":[
				-0.9854421019554138,
				-1.2765928506851196,
				-0.9896652102470398
			],
			"type":"VEC3"
		},
		{
			"bufferView":124,
			"componentType":5126,
			"count":1984,
			"type":"VEC3"
		},
		{
			"bufferView":125,
			"componentType":5126,
			"count":1984,
			"type":"VEC2"
		},
		{
			"bufferView":126,
			"componentType":5126,
			"count":256,
			"max":[
				1,
				2.4606075286865234,
				1
			],
			"min":[
				-1.000000238418579,
				-0.06060607731342316,
				-1
			],
			"type":"VEC3"
		},
		{
			"bufferView":127,
			"componentType":5126,
			"count":256,
			"type":"VEC3"
		},
		{
			"bufferView":128,
			"componentType":5126,
			"count":256,
			"type":"VEC2"
		},
		{
			"bufferView":129,
			"componentType":5123,
			"count":372,
			"type":"SCALAR"
		},
		{
			"bufferView":130,
			"componentType":5126,
			"count":25,
			"max":[
				0.05044296756386757,
				0.060615163296461105,
				0.05044296756386757
			],
			"min":[
				-0.05044296756386757,
				0.060615163296461105,
				-0.05044296756386757
			],
			"type":"VEC3"
		},
		{
			"bufferView":131,
			"componentType":5126,
			"count":25,
			"type":"VEC3"
		},
		{
			"bufferView":132,
			"componentType":5126,
			"count":25,
			"type":"VEC2"
		},
		{
			"bufferView":133,
			"componentType":5123,
			"count":72,
			"type":"SCALAR"
		},
		{
			"bufferView":134,
			"componentType":5126,
			"count":185,
			"max":[
				0.057411160320043564,
				0.1293521374464035,
				0.057411160320043564
			],
			"min":[
				-0.0942092090845108,
				-2.041459083557129e-06,
				-0.057411160320043564
			],
			"type":"VEC3"
		},
		{
			"bufferView":135,
			"componentType":5126,
			"count":185,
			"type":"VEC3"
		},
		{
			"bufferView":136,
			"componentType":5126,
			"count":185,
			"type":"VEC2"
		},
		{
			"bufferView":137,
			"componentType":5123,
			"count":888,
			"type":"SCALAR"
		},
		{
			"bufferView":138,
			"componentType":5126,
			"count":2,
			"max":[
				2.8333333333333335
			],
			"min":[
				0.08333333333333333
			],
			"type":"SCALAR"
		},
		{
			"bufferView":139,
			"componentType":5126,
			"count":2,
			"type":"VEC3"
		},
		{
			"bufferView":140,
			"componentType":5126,
			"count":2,
			"type":"VEC4"
		},
		{
			"bufferView":141,
			"componentType":5126,
			"count":2,
			"type":"VEC3"
		},
		{
			"bufferView":142,
			"componentType":5126,
			"count":2,
			"type":"VEC3"
		},
		{
			"bufferView":143,
			"componentType":5126,
			"count":67,
			"max":[
				2.8333333333333335
			],
			"min":[
				0.08333333333333333
			],
			"type":"SCALAR"
		},
		{
			"bufferView":144,
			"componentType":5126,
			"count":67,
			"type":"VEC4"
		},
		{
			"bufferView":145,
			"componentType":5126,
			"count":2,
			"type":"VEC3"
		},
		{
			"bufferView":146,
			"componentType":5126,
			"count":2,
			"type":"VEC3"
		},
		{
			"bufferView":147,
			"componentType":5126,
			"count":67,
			"type":"VEC4"
		},
		{
			"bufferView":148,
			"componentType":5126,
			"count":2,
			"type":"VEC3"
		},
		{
			"bufferView":149,
			"componentType":5126,
			"count":2,
			"type":"VEC3"
		},
		{
			"bufferView":150,
			"componentType":5126,
			"count":67,
			"type":"VEC4"
		},
		{
			"bufferView":151,
			"componentType":5126,
			"count":2,
			"type":"VEC3"
		},
		{
			"bufferView":152,
			"componentType":5126,
			"count":2,
			"type":"VEC3"
		},
		{
			"bufferView":153,
			"componentType":5126,
			"count":67,
			"type":"VEC4"
		},
		{
			"bufferView":154,
			"componentType":5126,
			"count":2,
			"type":"VEC3"
		},
		{
			"bufferView":155,
			"componentType":5126,
			"count":2,
			"type":"VEC4"
		},
		{
			"bufferView":156,
			"componentType":5126,
			"count":2,
			"type":"VEC3"
		},
		{
			"bufferView":157,
			"componentType":5126,
			"count":2,
			"type":"VEC3"
		},
		{
			"bufferView":158,
			"componentType":5126,
			"count":2,
			"type":"VEC4"
		},
		{
			"bufferView":159,
			"componentType":5126,
			"count":2,
			"type":"VEC3"
		},
		{
			"bufferView":160,
			"componentType":5126,
			"count":67,
			"type":"VEC3"
		},
		{
			"bufferView":161,
			"componentType":5126,
			"count":2,
			"type":"VEC4"
		},
		{
			"bufferView":162,
			"componentType":5126,
			"count":2,
			"type":"VEC3"
		},
		{
			"bufferView":163,
			"componentType":5126,
			"count":2,
			"type":"VEC4"
		},
		{
			"bufferView":164,
			"componentType":5126,
			"count":2,
			"type":"VEC3"
		},
		{
			"bufferView":165,
			"componentType":5126,
			"count":67,
			"type":"VEC3"
		},
		{
			"bufferView":166,
			"componentType":5126,
			"count":2,
			"type":"VEC4"
		},
		{
			"bufferView":167,
			"componentType":5126,
			"count":2,
			"type":"VEC3"
		},
		{
			"bufferView":168,
			"componentType":5126,
			"count":2,
			"max":[
				2.5416666666666665
			],
			"min":[
				0.08333333333333333
			],
			"type":"SCALAR"
		},
		{
			"bufferView":169,
			"componentType":5126,
			"count":2,
			"type":"VEC3"
		},
		{
			"bufferView":170,
			"componentType":5126,
			"count":2,
			"type":"VEC4"
		},
		{
			"bufferView":171,
			"componentType":5126,
			"count":2,
			"type":"VEC3"
		},
		{
			"bufferView":172,
			"componentType":5126,
			"count":2,
			"type":"VEC3"
		},
		{
			"bufferView":173,
			"componentType":5126,
			"count":60,
			"max":[
				2.5416666666666665
			],
			"min":[
				0.08333333333333333
			],
			"type":"SCALAR"
		},
		{
			"bufferView":174,
			"componentType":5126,
			"count":60,
			"type":"VEC4"
		},
		{
			"bufferView":175,
			"componentType":5126,
			"count":2,
			"type":"VEC3"
		},
		{
			"bufferView":176,
			"componentType":5126,
			"count":2,
			"type":"VEC3"
		},
		{
			"bufferView":177,
			"componentType":5126,
			"count":60,
			"type":"VEC4"
		},
		{
			"bufferView":178,
			"componentType":5126,
			"count":2,
			"type":"VEC3"
		},
		{
			"bufferView":179,
			"componentType":5126,
			"count":2,
			"type":"VEC3"
		},
		{
			"bufferView":180,
			"componentType":5126,
			"count":60,
			"type":"VEC4"
		},
		{
			"bufferView":181,
			"componentType":5126,
			"count":2,
			"type":"VEC3"
		},
		{
			"bufferView":182,
			"componentType":5126,
			"count":2,
			"type":"VEC3"
		},
		{
			"bufferView":183,
			"componentType":5126,
			"count":60,
			"type":"VEC4"
		},
		{
			"bufferView":184,
			"componentType":5126,
			"count":2,
			"type":"VEC3"
		},
		{
			"bufferView":185,
			"componentType":5126,
			"count":2,
			"type":"VEC3"
		},
		{
			"bufferView":186,
			"componentType":5126,
			"count":2,
			"type":"VEC4"
		},
		{
			"bufferView":187,
			"componentType":5126,
			"count":2,
			"type":"VEC3"
		},
		{
			"bufferView":188,
			"componentType":5126,
			"count":2,
			"type":"VEC3"
		},
		{
			"bufferView":189,
			"componentType":5126,
			"count":60,
			"type":"VEC4"
		},
		{
			"bufferView":190,
			"componentType":5126,
			"count":2,
			"type":"VEC3"
		},
		{
			"bufferView":191,
			"componentType":5126,
			"count":2,
			"type":"VEC3"
		},
		{
			"bufferView":192,
			"componentType":5126,
			"count":2,
			"type":"VEC4"
		},
		{
			"bufferView":193,
			"componentType":5126,
			"count":2,
			"type":"VEC3"
		},
		{
			"bufferView":194,
			"componentType":5126,
			"count":2,
			"type":"VEC3"
		},
		{
			"bufferView":195,
			"componentType":5126,
			"count":60,
			"type":"VEC4"
		},
		{
			"bufferView":196,
			"componentType":5126,
			"count":2,
			"type":"VEC3"
		},
		{
			"bufferView":197,
			"componentType":5126,
			"count":2,
			"type":"VEC3"
		},
		{
			"bufferView":198,
			"componentType":5126,
			"count":2,
			"type":"VEC4"
		},
		{
			"bufferView":199,
			"componentType":5126,
			"count":2,
			"type":"VEC3"
		},
		{
			"bufferView":200,
			"componentType":5126,
			"count":60,
			"type":"VEC4"
		},
		{
			"bufferView":201,
			"componentType":5126,
			"count":2,
			"type":"VEC3"
		},
		{
			"bufferView":202,
			"componentType":5126,
			"count":2,
			"type":"VEC3"
		},
		{
			"bufferView":203,
			"componentType":5126,
			"count":60,
			"type":"VEC4"
		},
		{
			"bufferView":204,
			"componentType":5126,
			"count":2,
			"type":"VEC3"
		},
		{
			"bufferView":205,
			"componentType":5126,
			"count":2,
			"type":"VEC4"
		},
		{
			"bufferView":206,
			"componentType":5126,
			"count":2,
			"type":"VEC3"
		},
		{
			"bufferView":207,
			"componentType":5126,
			"count":2,
			"type":"VEC3"
		},
		{
			"bufferView":208,
			"componentType":5126,
			"count":2,
			"type":"VEC4"
		},
		{
			"bufferView":209,
			"componentType":5126,
			"count":60,
			"type":"VEC3"
		},
		{
			"bufferView":210,
			"componentType":5126,
			"count":2,
			"type":"VEC3"
		},
		{
			"bufferView":211,
			"componentType":5126,
			"count":60,
			"type":"VEC3"
		},
		{
			"bufferView":212,
			"componentType":5126,
			"count":2,
			"type":"VEC3"
		},
		{
			"bufferView":213,
			"componentType":5126,
			"count":60,
			"type":"VEC3"
		},
		{
			"bufferView":214,
			"componentType":5126,
			"count":2,
			"type":"VEC3"
		},
		{
			"bufferView":215,
			"componentType":5126,
			"count":60,
			"type":"VEC3"
		},
		{
			"bufferView":216,
			"componentType":5126,
			"count":2,
			"type":"VEC3"
		},
		{
			"bufferView":217,
			"componentType":5126,
			"count":32,
			"max":[
				1.7083333333333333
			],
			"min":[
				0.4166666666666667
			],
			"type":"SCALAR"
		},
		{
			"bufferView":218,
			"componentType":5126,
			"count":32,
			"type":"VEC3"
		},
		{
			"bufferView":219,
			"componentType":5126,
			"count":72,
			"max":[
				2.9583333333333335
			],
			"min":[
				0
			],
			"type":"SCALAR"
		},
		{
			"bufferView":220,
			"componentType":5126,
			"count":72,
			"type":"VEC3"
		},
		{
			"bufferView":221,
			"componentType":5126,
			"count":131,
			"max":[
				5.416666666666667
			],
			"min":[
				0
			],
			"type":"SCALAR"
		},
		{
			"bufferView":222,
			"componentType":5126,
			"count":131,
			"type":"VEC3"
		},
		{
			"bufferView":223,
			"componentType":5126,
			"count":131,
			"type":"VEC3"
		},
		{
			"bufferView":224,
			"componentType":5126,
			"count":126,
			"max":[
				5.416666666666667
			],
			"min":[
				0.20833333333333334
			],
			"type":"SCALAR"
		},
		{
			"bufferView":225,
			"componentType":5126,
			"count":126,
			"type":"VEC3"
		},
		{
			"bufferView":226,
			"componentType":5126,
			"count":126,
			"type":"VEC3"
		},
		{
			"bufferView":227,
			"componentType":5126,
			"count":59,
			"max":[
				5.291666666666667
			],
			"min":[
				2.875
			],
			"type":"SCALAR"
		},
		{
			"bufferView":228,
			"componentType":5126,
			"count":59,
			"type":"VEC3"
		}
	],
	"bufferViews":[
		{
			"buffer":0,
			"byteLength":61716,
			"byteOffset":0,
			"target":34962
		},
		{
			"buffer":0,
			"byteLength":61716,
			"byteOffset":61716,
			"target":34962
		},
		{
			"buffer":0,
			"byteLength":41144,
			"byteOffset":123432,
			"target":34962
		},
		{
			"buffer":0,
			"byteLength":37068,
			"byteOffset":164576,
			"target":34963
		},
		{
			"buffer":0,
			"byteLength":2460,
			"byteOffset":201644,
			"target":34962
		},
		{
			"buffer":0,
			"byteLength":2460,
			"byteOffset":204104,
			"target":34962
		},
		{
			"buffer":0,
			"byteLength":1640,
			"byteOffset":206564,
			"target":34962
		},
		{
			"buffer":0,
			"byteLength":1620,
			"byteOffset":208204,
			"target":34963
		},
		{
			"buffer":0,
			"byteLength":1764,
			"byteOffset":209824,
			"target":34962
		},
		{
			"buffer":0,
			"byteLength":1764,
			"byteOffset":211588,
			"target":34962
		},
		{
			"buffer":0,
			"byteLength":1176,
			"byteOffset":213352,
			"target":34962
		},
		{
			"buffer":0,
			"byteLength":588,
			"byteOffset":214528,
			"target":34962
		},
		{
			"buffer":0,
			"byteLength":2352,
			"byteOffset":215116,
			"target":34962
		},
		{
			"buffer":0,
			"byteLength":1170,
			"byteOffset":217468,
			"target":34963
		},
		{
			"buffer":0,
			"byteLength":640,
			"byteOffset":218640
		},
		{
			"buffer":0,
			"byteLength":4248,
			"byteOffset":219280,
			"target":34962
		},
		{
			"buffer":0,
			"byteLength":4248,
			"byteOffset":223528,
			"target":34962
		},
		{
			"buffer":0,
			"byteLength":2832,
			"byteOffset":227776,
			"target":34962
		},
		{
			"buffer":0,
			"byteLength":3384,
			"byteOffset":230608,
			"target":34963
		},
		{
			"buffer":0,
			"byteLength":2196,
			"byteOffset":233992,
			"target":34962
		},
		{
			"buffer":0,
			"byteLength":2196,
			"byteOffset":236188,
			"target":34962
		},
		{
			"buffer":0,
			"byteLength":1464,
			"byteOffset":238384,
			"target":34962
		},
		{
			"buffer":0,
			"byteLength":2064,
			"byteOffset":239848,
			"target":34963
		},
		{
			"buffer":0,
			"byteLength":13884,
			"byteOffset":241912,
			"target":34962
		},
		{
			"buffer":0,
			"byteLength":13884,
			"byteOffset":255796,
			"target":34962
		},
		{
			"buffer":0,
			"byteLength":9256,
			"byteOffset":269680,
			"target":34962
		},
		{
			"buffer":0,
			"byteLength":7080,
			"byteOffset":278936,
			"target":34963
		},
		{
			"buffer":0,
			"byteLength":1680,
			"byteOffset":286016,
			"target":34962
		},
		{
			"buffer":0,
			"byteLength":1680,
			"byteOffset":287696,
			"target":34962
		},
		{
			"buffer":0,
			"byteLength":1120,
			"byteOffset":289376,
			"target":34962
		},
		{
			"buffer":0,
			"byteLength":696,
			"byteOffset":290496,
			"target":34963
		},
		{
			"buffer":0,
			"byteLength":4608,
			"byteOffset":291192,
			"target":34962
		},
		{
			"buffer":0,
			"byteLength":4608,
			"byteOffset":295800,
			"target":34962
		},
		{
			"buffer":0,
			"byteLength":3072,
			"byteOffset":300408,
			"target":34962
		},
		{
			"buffer":0,
			"byteLength":1536,
			"byteOffset":303480,
			"target":34963
		},
		{
			"buffer":0,
			"byteLength":4608,
			"byteOffset":305016,
			"target":34962
		},
		{
			"buffer":0,
			"byteLength":4608,
			"byteOffset":309624,
			"target":34962
		},
		{
			"buffer":0,
			"byteLength":3072,
			"byteOffset":314232,
			"target":34962
		},
		{
			"buffer":0,
			"byteLength":7968,
			"byteOffset":317304,
			"target":34962
		},
		{
			"buffer":0,
			"byteLength":7968,
			"byteOffset":325272,
			"target":34962
		},
		{
			"buffer":0,
			"byteLength":5312,
			"byteOffset":333240,
			"target":34962
		},
		{
			"buffer":0,
			"byteLength":2454,
			"byteOffset":338552,
			"target":34963
		},
		{
			"buffer":0,
			"byteLength":10716,
			"byteOffset":341008,
			"target":34962
		},
		{
			"buffer":0,
			"byteLength":10716,
			"byteOffset":351724,
			"target":34962
		},
		{
			"buffer":0,
			"byteLength":7144,
			"byteOffset":362440,
			"target":34962
		},
		{
			"buffer":0,
			"byteLength":3828,
			"byteOffset":369584,
			"target":34963
		},
		{
			"buffer":0,
			"byteLength":21216,
			"byteOffset":373412,
			"target":34962
		},
		{
			"buffer":0,
			"byteLength":21216,
			"byteOffset":394628,
			"target":34962
		},
		{
			"buffer":0,
			"byteLength":14144,
			"byteOffset":415844,
			"target":34962
		},
		{
			"buffer":0,
			"byteLength":5376,
			"byteOffset":429988,
			"target":34963
		},
		{
			"buffer":0,
			"byteLength":20580,
			"byteOffset":435364,
			"target":34962
		},
		{
			"buffer":0,
			"byteLength":20580,
			"byteOffset":455944,
			"target":34962
		},
		{
			"buffer":0,
			"byteLength":13720,
			"byteOffset":476524,
			"target":34962
		},
		{
			"buffer":0,
			"byteLength":6672,
			"byteOffset":490244,
			"target":34963
		},
		{
			"buffer":0,
			"byteLength":4680,
			"byteOffset":496916,
			"target":34962
		},
		{
			"buffer":0,
			"byteLength":4680,
			"byteOffset":501596,
			"target":34962
		},
		{
			"buffer":0,
			"byteLength":3120,
			"byteOffset":506276,
			"target":34962
		},
		{
			"buffer":0,
			"byteLength":1668,
			"byteOffset":509396,
			"target":34963
		},
		{
			"buffer":0,
			"byteLength":672,
			"byteOffset":511064,
			"target":34962
		},
		{
			"buffer":0,
			"byteLength":672,
			"byteOffset":511736,
			"target":34962
		},
		{
			"buffer":0,
			"byteLength":448,
			"byteOffset":512408,
			"target":34962
		},
		{
			"buffer":0,
			"byteLength":252,
			"byteOffset":512856,
			"target":34963
		},
		{
			"buffer":0,
			"byteLength":288,
			"byteOffset":513108,
			"target":34962
		},
		{
			"buffer":0,
			"byteLength":288,
			"byteOffset":513396,
			"target":34962
		},
		{
			"buffer":0,
			"byteLength":192,
			"byteOffset":513684,
			"target":34962
		},
		{
			"buffer":0,
			"byteLength":72,
			"byteOffset":513876,
			"target":34963
		},
		{
			"buffer":0,
			"byteLength":4224,
			"byteOffset":513948,
			"target":34962
		},
		{
			"buffer":0,
			"byteLength":4224,
			"byteOffset":518172,
			"target":34962
		},
		{
			"buffer":0,
			"byteLength":2816,
			"byteOffset":522396,
			"target":34962
		},
		{
			"buffer":0,
			"byteLength":2100,
			"byteOffset":525212,
			"target":34963
		},
		{
			"buffer":0,
			"byteLength":1536,
			"byteOffset":527312,
			"target":34962
		},
		{
			"buffer":0,
			"byteLength":1536,
			"byteOffset":528848,
			"target":34962
		},
		{
			"buffer":0,
			"byteLength":1024,
			"byteOffset":530384,
			"target":34962
		},
		{
			"buffer":0,
			"byteLength":384,
			"byteOffset":531408,
			"target":34963
		},
		{
			"buffer":0,
			"byteLength":3456,
			"byteOffset":531792,
			"target":34962
		},
		{
			"buffer":0,
			"byteLength":3456,
			"byteOffset":535248,
			"target":34962
		},
		{
			"buffer":0,
			"byteLength":2304,
			"byteOffset":538704,
			"target":34962
		},
		{
			"buffer":0,
			"byteLength":1332,
			"byteOffset":541008,
			"target":34963
		},
		{
			"buffer":0,
			"byteLength":1656,
			"byteOffset":542340,
			"target":34962
		},
		{
			"buffer":0,
			"byteLength":1656,
			"byteOffset":543996,
			"target":34962
		},
		{
			"buffer":0,
			"byteLength":1104,
			"byteOffset":545652,
			"target":34962
		},
		{
			"buffer":0,
			"byteLength":768,
			"byteOffset":546756,
			"target":34963
		},
		{
			"buffer":0,
			"byteLength":113796,
			"byteOffset":547524,
			"target":34962
		},
		{
			"buffer":0,
			"byteLength":113796,
			"byteOffset":661320,
			"target":34962
		},
		{
			"buffer":0,
			"byteLength":75864,
			"byteOffset":775116,
			"target":34962
		},
		{
			"buffer":0,
			"byteLength":37932,
			"byteOffset":850980,
			"target":34962
		},
		{
			"buffer":0,
			"byteLength":151728,
			"byteOffset":888912,
			"target":34962
		},
		{
			"buffer":0,
			"byteLength":77280,
			"byteOffset":1040640,
			"target":34963
		},
		{
			"buffer":0,
			"byteLength":640,
			"byteOffset":1117920
		},
		{
			"buffer":0,
			"byteLength":1920,
			"byteOffset":1118560,
			"target":34962
		},
		{
			"buffer":0,
			"byteLength":1920,
			"byteOffset":1120480,
			"target":34962
		},
		{
			"buffer":0,
			"byteLength":1280,
			"byteOffset":1122400,
			"target":34962
		},
		{
			"buffer":0,
			"byteLength":552,
			"byteOffset":1123680,
			"target":34963
		},
		{
			"buffer":0,
			"byteLength":4608,
			"byteOffset":1124232,
			"target":34962
		},
		{
			"buffer":0,
			"byteLength":4608,
			"byteOffset":1128840,
			"target":34962
		},
		{
			"buffer":0,
			"byteLength":3072,
			"byteOffset":1133448,
			"target":34962
		},
		{
			"buffer":0,
			"byteLength":1152,
			"byteOffset":1136520,
			"target":34963
		},
		{
			"buffer":0,
			"byteLength":3084,
			"byteOffset":1137672,
			"target":34962
		},
		{
			"buffer":0,
			"byteLength":3084,
			"byteOffset":1140756,
			"target":34962
		},
		{
			"buffer":0,
			"byteLength":2056,
			"byteOffset":1143840,
			"target":34962
		},
		{
			"buffer":0,
			"byteLength":1140,
			"byteOffset":1145896,
			"target":34963
		},
		{
			"buffer":0,
			"byteLength":1536,
			"byteOffset":1147036,
			"target":34962
		},
		{
			"buffer":0,
			"byteLength":1536,
			"byteOffset":1148572,
			"target":34962
		},
		{
			"buffer":0,
			"byteLength":1024,
			"byteOffset":1150108,
			"target":34962
		},
		{
			"buffer":0,
			"byteLength":372,
			"byteOffset":1151132,
			"target":34963
		},
		{
			"buffer":0,
			"byteLength":1536,
			"byteOffset":1151504,
			"target":34962
		},
		{
			"buffer":0,
			"byteLength":1536,
			"byteOffset":1153040,
			"target":34962
		},
		{
			"buffer":0,
			"byteLength":1024,
			"byteOffset":1154576,
			"target":34962
		},
		{
			"buffer":0,
			"byteLength":2880,
			"byteOffset":1155600,
			"target":34962
		},
		{
			"buffer":0,
			"byteLength":2880,
			"byteOffset":1158480,
			"target":34962
		},
		{
			"buffer":0,
			"byteLength":1920,
			"byteOffset":1161360,
			"target":34962
		},
		{
			"buffer":0,
			"byteLength":480,
			"byteOffset":1163280,
			"target":34963
		},
		{
			"buffer":0,
			"byteLength":2880,
			"byteOffset":1163760,
			"target":34962
		},
		{
			"buffer":0,
			"byteLength":2880,
			"byteOffset":1166640,
			"target":34962
		},
		{
			"buffer":0,
			"byteLength":1920,
			"byteOffset":1169520,
			"target":34962
		},
		{
			"buffer":0,
			"byteLength":23808,
			"byteOffset":1171440,
			"target":34962
		},
		{
			"buffer":0,
			"byteLength":23808,
			"byteOffset":1195248,
			"target":34962
		},
		{
			"buffer":0,
			"byteLength":15872,
			"byteOffset":1219056,
			"target":34962
		},
		{
			"buffer":0,
			"byteLength":5760,
			"byteOffset":1234928,
			"target":34963
		},
		{
			"buffer":0,
			"byteLength":2316,
			"byteOffset":1240688,
			"target":34962
		},
		{
			"buffer":0,
			"byteLength":2316,
			"byteOffset":1243004,
			"target":34962
		},
		{
			"buffer":0,
			"byteLength":1544,
			"byteOffset":1245320,
			"target":34962
		},
		{
			"buffer":0,
			"byteLength":756,
			"byteOffset":1246864,
			"target":34963
		},
		{
			"buffer":0,
			"byteLength":23808,
			"byteOffset":1247620,
			"target":34962
		},
		{
			"buffer":0,
			"byteLength":23808,
			"byteOffset":1271428,
			"target":34962
		},
		{
			"buffer":0,
			"byteLength":15872,
			"byteOffset":1295236,
			"target":34962
		},
		{
			"buffer":0,
			"byteLength":3072,
			"byteOffset":1311108,
			"target":34962
		},
		{
			"buffer":0,
			"byteLength":3072,
			"byteOffset":1314180,
			"target":34962
		},
		{
			"buffer":0,
			"byteLength":2048,
			"byteOffset":1317252,
			"target":34962
		},
		{
			"buffer":0,
			"byteLength":744,
			"byteOffset":1319300,
			"target":34963
		},
		{
			"buffer":0,
			"byteLength":300,
			"byteOffset":1320044,
			"target":34962
		},
		{
			"buffer":0,
			"byteLength":300,
			"byteOffset":1320344,
			"target":34962
		},
		{
			"buffer":0,
			"byteLength":200,
			"byteOffset":1320644,
			"target":34962
		},
		{
			"buffer":0,
			"byteLength":144,
			"byteOffset":1320844,
			"target":34963
		},
		{
			"buffer":0,
			"byteLength":2220,
			"byteOffset":1320988,
			"target":34962
		},
		{
			"buffer":0,
			"byteLength":2220,
			"byteOffset":1323208,
			"target":34962
		},
		{
			"buffer":0,
			"byteLength":1480,
			"byteOffset":1325428,
			"target":34962
		},
		{
			"buffer":0,
			"byteLength":1776,
			"byteOffset":1326908,
			"target":34963
		},
		{
			"buffer":0,
			"byteLength":8,
			"byteOffset":1328684
		},
		{
			"buffer":0,
			"byteLength":24,
			"byteOffset":1328692
		},
		{
			"buffer":0,
			"byteLength":32,
			"byteOffset":1328716
		},
		{
			"buffer":0,
			"byteLength":24,
			"byteOffset":1328748
		},
		{
			"buffer":0,
			"byteLength":24,
			"byteOffset":1328772
		},
		{
			"buffer":0,
			"byteLength":268,
			"byteOffset":1328796
		},
		{
			"buffer":0,
			"byteLength":1072,
			"byteOffset":1329064
		},
		{
			"buffer":0,
			"byteLength":24,
			"byteOffset":1330136
		},
		{
			"buffer":0,
			"byteLength":24,
			"byteOffset":1330160
		},
		{
			"buffer":0,
			"byteLength":1072,
			"byteOffset":1330184
		},
		{
			"buffer":0,
			"byteLength":24,
			"byteOffset":1331256
		},
		{
			"buffer":0,
			"byteLength":24,
			"byteOffset":1331280
		},
		{
			"buffer":0,
			"byteLength":1072,
			"byteOffset":1331304
		},
		{
			"buffer":0,
			"byteLength":24,
			"byteOffset":1332376
		},
		{
			"buffer":0,
			"byteLength":24,
			"byteOffset":1332400
		},
		{
			"buffer":0,
			"byteLength":1072,
			"byteOffset":1332424
		},
		{
			"buffer":0,
			"byteLength":24,
			"byteOffset":1333496
		},
		{
			"buffer":0,
			"byteLength":32,
			"byteOffset":1333520
		},
		{
			"buffer":0,
			"byteLength":24,
			"byteOffset":1333552
		},
		{
			"buffer":0,
			"byteLength":24,
			"byteOffset":1333576
		},
		{
			"buffer":0,
			"byteLength":32,
			"byteOffset":1333600
		},
		{
			"buffer":0,
			"byteLength":24,
			"byteOffset":1333632
		},
		{
			"buffer":0,
			"byteLength":804,
			"byteOffset":1333656
		},
		{
			"buffer":0,
			"byteLength":32,
			"byteOffset":1334460
		},
		{
			"buffer":0,
			"byteLength":24,
			"byteOffset":1334492
		},
		{
			"buffer":0,
			"byteLength":32,
			"byteOffset":1334516
		},
		{
			"buffer":0,
			"byteLength":24,
			"byteOffset":1334548
		},
		{
			"buffer":0,
			"byteLength":804,
			"byteOffset":1334572
		},
		{
			"buffer":0,
			"byteLength":32,
			"byteOffset":1335376
		},
		{
			"buffer":0,
			"byteLength":24,
			"byteOffset":1335408
		},
		{
			"buffer":0,
			"byteLength":8,
			"byteOffset":1335432
		},
		{
			"buffer":0,
			"byteLength":24,
			"byteOffset":1335440
		},
		{
			"buffer":0,
			"byteLength":32,
			"byteOffset":1335464
		},
		{
			"buffer":0,
			"byteLength":24,
			"byteOffset":1335496
		},
		{
			"buffer":0,
			"byteLength":24,
			"byteOffset":1335520
		},
		{
			"buffer":0,
			"byteLength":240,
			"byteOffset":1335544
		},
		{
			"buffer":0,
			"byteLength":960,
			"byteOffset":1335784
		},
		{
			"buffer":0,
			"byteLength":24,
			"byteOffset":1336744
		},
		{
			"buffer":0,
			"byteLength":24,
			"byteOffset":1336768
		},
		{
			"buffer":0,
			"byteLength":960,
			"byteOffset":1336792
		},
		{
			"buffer":0,
			"byteLength":24,
			"byteOffset":1337752
		},
		{
			"buffer":0,
			"byteLength":24,
			"byteOffset":1337776
		},
		{
			"buffer":0,
			"byteLength":960,
			"byteOffset":1337800
		},
		{
			"buffer":0,
			"byteLength":24,
			"byteOffset":1338760
		},
		{
			"buffer":0,
			"byteLength":24,
			"byteOffset":1338784
		},
		{
			"buffer":0,
			"byteLength":960,
			"byteOffset":1338808
		},
		{
			"buffer":0,
			"byteLength":24,
			"byteOffset":1339768
		},
		{
			"buffer":0,
			"byteLength":24,
			"byteOffset":1339792
		},
		{
			"buffer":0,
			"byteLength":32,
			"byteOffset":1339816
		},
		{
			"buffer":0,
			"byteLength":24,
			"byteOffset":1339848
		},
		{
			"buffer":0,
			"byteLength":24,
			"byteOffset":1339872
		},
		{
			"buffer":0,
			"byteLength":960,
			"byteOffset":1339896
		},
		{
			"buffer":0,
			"byteLength":24,
			"byteOffset":1340856
		},
		{
			"buffer":0,
			"byteLength":24,
			"byteOffset":1340880
		},
		{
			"buffer":0,
			"byteLength":32,
			"byteOffset":1340904
		},
		{
			"buffer":0,
			"byteLength":24,
			"byteOffset":1340936
		},
		{
			"buffer":0,
			"byteLength":24,
			"byteOffset":1340960
		},
		{
			"buffer":0,
			"byteLength":960,
			"byteOffset":1340984
		},
		{
			"buffer":0,
			"byteLength":24,
			"byteOffset":1341944
		},
		{
			"buffer":0,
			"byteLength":24,
			"byteOffset":1341968
		},
		{
			"buffer":0,
			"byteLength":32,
			"byteOffset":1341992
		},
		{
			"buffer":0,
			"byteLength":24,
			"byteOffset":1342024
		},
		{
			"buffer":0,
			"byteLength":960,
			"byteOffset":1342048
		},
		{
			"buffer":0,
			"byteLength":24,
			"byteOffset":1343008
		},
		{
			"buffer":0,
			"byteLength":24,
			"byteOffset":1343032
		},
		{
			"buffer":0,
			"byteLength":960,
			"byteOffset":1343056
		},
		{
			"buffer":0,
			"byteLength":24,
			"byteOffset":1344016
		},
		{
			"buffer":0,
			"byteLength":32,
			"byteOffset":1344040
		},
		{
			"buffer":0,
			"byteLength":24,
			"byteOffset":1344072
		},
		{
			"buffer":0,
			"byteLength":24,
			"byteOffset":1344096
		},
		{
			"buffer":0,
			"byteLength":32,
			"byteOffset":1344120
		},
		{
			"buffer":0,
			"byteLength":720,
			"byteOffset":1344152
		},
		{
			"buffer":0,
			"byteLength":24,
			"byteOffset":1344872
		},
		{
			"buffer":0,
			"byteLength":720,
			"byteOffset":1344896
		},
		{
			"buffer":0,
			"byteLength":24,
			"byteOffset":1345616
		},
		{
			"buffer":0,
			"byteLength":720,
			"byteOffset":1345640
		},
		{
			"buffer":0,
			"byteLength":24,
			"byteOffset":1346360
		},
		{
			"buffer":0,
			"byteLength":720,
			"byteOffset":1346384
		},
		{
			"buffer":0,
			"byteLength":24,
			"byteOffset":1347104
		},
		{
			"buffer":0,
			"byteLength":128,
			"byteOffset":1347128
		},
		{
			"buffer":0,
			"byteLength":384,
			"byteOffset":1347256
		},
		{
			"buffer":0,
			"byteLength":288,
			"byteOffset":1347640
		},
		{
			"buffer":0,
			"byteLength":864,
			"byteOffset":1347928
		},
		{
			"buffer":0,
			"byteLength":524,
			"byteOffset":1348792
		},
		{
			"buffer":0,
			"byteLength":1572,
			"byteOffset":1349316
		},
		{
			"buffer":0,
			"byteLength":1572,
			"byteOffset":1350888
		},
		{
			"buffer":0,
			"byteLength":504,
			"byteOffset":1352460
		},
		{
			"buffer":0,
			"byteLength":1512,
			"byteOffset":1352964
		},
		{
			"buffer":0,
			"byteLength":1512,
			"byteOffset":1354476
		},
		{
			"buffer":0,
			"byteLength":236,
			"byteOffset":1355988
		},
		{
			"buffer":0,
			"byteLength":708,
			"byteOffset":1356224
		}
	],
	"samplers":[
		{
			"magFilter":9729,
			"minFilter":9987
		}
	],
	"buffers":[
		{
			"byteLength":1356932,
			"uri":"aquarium.bin"
		}
	]
}
